<svg xmlns="http://www.w3.org/2000/svg" width="22" height="22" viewBox="0 0 22 22" fill="none"><path d="M16 1.22852H6C3.23858 1.22852 1 3.46709 1 6.22852V16.2285C1 18.9899 3.23858 21.2285 6 21.2285H16C18.7614 21.2285 21 18.9899 21 16.2285V6.22852C21 3.46709 18.7614 1.22852 16 1.22852Z" stroke="black" stroke-width="0.5" stroke-linecap="round" stroke-linejoin="round"></path><path d="M14 4H12.0909C11.247 4 10.4377 4.36875 9.84102 5.02513C9.24432 5.6815 8.90909 6.57174 8.90909 7.5V9.6H7V12.4H8.90909V18H11.4545V12.4H13.3636L14 9.6H11.4545V7.5C11.4545 7.31435 11.5216 7.1363 11.6409 7.00503C11.7603 6.87375 11.9221 6.8 12.0909 6.8H14V4Z" fill="black"></path></svg>