<svg xmlns="http://www.w3.org/2000/svg" width="177" height="20" fill="none" viewBox="0 0 177 20"><g clip-path="url(#a)"><path fill="#fff" d="M149.306 19.665c-.027-1.012-.171-6.906-.171-9.641 0-2.735.144-8.622.171-9.634a.146.146 0 0 0-.144-.15h-3.172a.142.142 0 0 0-.144.15c.028.957.164 6.31.164 9.647 0 3.337-.143 8.67-.164 9.628 0 .082.062.15.144.15h3.172a.142.142 0 0 0 .144-.15Zm27.357-.055c-.349-1.244-.567-3.07-.608-4.26-.069-2.338-.677-3.213-1.901-3.938 1.285-1.026 2.441-2.927 2.441-4.855v-.28c0-3.344-2.722-6.038-6.065-6.038h-5.436a.17.17 0 0 0-.171.178c.034.684.164 3.364.164 8.903 0 5.538-.13 9.483-.164 10.317 0 .096.075.178.171.178h3.118a.17.17 0 0 0 .171-.17v-6.948a.09.09 0 0 1 .089-.088h1.463c1.545 0 2.598.588 2.694 3.186.096 2.626.328 3.596.424 3.904a.17.17 0 0 0 .164.116h3.282c.116 0 .192-.11.164-.219v.014ZM170.4 9.135h-1.915a.08.08 0 0 1-.082-.082V3.795c0-.048.041-.082.082-.082h1.915a2.725 2.725 0 0 1 2.714 2.714 2.725 2.725 0 0 1-2.714 2.715v-.007Zm-56.007 7.193a.142.142 0 0 0-.15-.143l-5.949.164c-.048 0-.089-.035-.089-.082v-4.82c0-.049.034-.09.089-.083.527.02 3.275.13 3.952.164a.147.147 0 0 0 .151-.143v-3.16a.142.142 0 0 0-.151-.143l-3.952.164c-.048 0-.089-.034-.089-.082V3.822c0-.048.041-.089.089-.082l5.949.164c.082 0 .15-.061.15-.143V.383a.14.14 0 0 0-.143-.144h-9.423a.236.236 0 0 0-.246.24c.034 1.066.164 5.32.164 8.848 0 3.528-.136 9.018-.164 10.235a.24.24 0 0 0 .24.246h9.565v-3.487l.007.007ZM51.44 19.57v-3.25a.142.142 0 0 0-.151-.143l-5.949.164c-.048 0-.089-.034-.089-.082v-4.82c0-.048.041-.09.09-.083.519.02 3.274.13 3.951.164.082 0 .15-.061.15-.143v-3.16a.142.142 0 0 0-.15-.143l-3.945.164a.09.09 0 0 1-.089-.089V3.81c0-.048.041-.09.09-.083l5.948.165c.082 0 .15-.062.15-.144V.383a.14.14 0 0 0-.143-.144H41.88a.235.235 0 0 0-.246.24c.035 1.066.164 5.32.164 8.848 0 3.528-.136 9.032-.164 10.235 0 .137.103.24.24.24H51.2c.137 0 .24-.11.24-.24v.007ZM162.044.24h-9.422a.235.235 0 0 0-.246.239c.034 1.066.164 5.32.164 8.848 0 3.528-.13 9.018-.164 10.235a.24.24 0 0 0 .239.246h9.566v-3.487a.141.141 0 0 0-.15-.143l-5.949.164c-.048 0-.089-.034-.089-.082v-4.82a.09.09 0 0 1 .089-.09c.533.02 3.268.13 3.945.165a.147.147 0 0 0 .151-.144V8.212a.142.142 0 0 0-.151-.144l-3.952.164c-.048 0-.089-.034-.089-.082V3.81c0-.048.041-.09.089-.083l5.949.165c.082 0 .15-.062.15-.144V.383a.144.144 0 0 0-.143-.144h.013Zm-59.87 6.522v-.45a6.067 6.067 0 0 0-6.065-6.06L90.735.24a.247.247 0 0 0-.246.253c.034 1.053.17 5.231.17 9.135 0 3.905-.122 8.814-.157 9.963 0 .136.11.253.247.253 0 0 2.352-.014 3.131-.014a.241.241 0 0 0 .24-.253c-.035-.882-.158-3.945-.158-6.66 0-.048.041-.082.09-.082h2.064c3.344 0 6.065-2.721 6.065-6.058l-.007-.014Zm-3.494.233a2.346 2.346 0 0 1-2.338 2.338h-2.29a.083.083 0 0 1-.083-.082V3.822c0-.048.041-.089.082-.089h2.29a2.346 2.346 0 0 1 2.34 2.339v.923ZM10.981.232H7.528a.162.162 0 0 0-.157.185c.082.554.314 2.338.314 5.3v8.485c0 1.128-.84 2.092-1.907 2.201a2.055 2.055 0 0 1-1.634-.54 2.035 2.035 0 0 1-.698-1.572c0-.459.082-.917.13-1.156a.146.146 0 0 0-.144-.178H.226a.148.148 0 0 0-.144.103c-.041.136-.089.437-.089 1.06 0 3.644 2.318 5.606 5.279 5.75a5.516 5.516 0 0 0 4.116-1.538 5.564 5.564 0 0 0 1.73-4.048V.383a.14.14 0 0 0-.144-.144l.007-.007Zm55.173 6.53v-.45c0-3.345-2.722-6.06-6.065-6.06L54.714.24a.247.247 0 0 0-.246.253c.034 1.053.171 5.231.171 9.135 0 3.905-.123 8.814-.157 9.963 0 .136.11.253.246.253 0 0 2.352-.014 3.132-.014a.241.241 0 0 0 .239-.253c-.034-.882-.157-3.945-.164-6.66 0-.048.041-.082.089-.082h2.065c3.343 0 6.065-2.721 6.065-6.058v-.014Zm-3.494.233a2.346 2.346 0 0 1-2.339 2.338h-2.29a.083.083 0 0 1-.082-.082V3.822c0-.048.034-.089.082-.089h2.29a2.346 2.346 0 0 1 2.339 2.339v.923ZM80 19.562c-.034-1.162-.164-6.154-.164-9.948 0-3.795.13-8.076.164-9.142a.24.24 0 0 0-.24-.246h-3.13a.241.241 0 0 0-.24.253l.165 7.528a.09.09 0 0 1-.09.089l-4.505-.028c-.048 0-.089-.04-.082-.089L72.04.492a.244.244 0 0 0-.24-.246h-3.138a.251.251 0 0 0-.246.253c.034.998.164 4.814.164 9.121 0 4.308-.13 8.855-.164 9.95a.24.24 0 0 0 .24.245h3.138c.136 0 .246-.11.24-.246l-.165-7.945a.09.09 0 0 1 .089-.089h4.506c.048 0 .089.041.082.089l-.164 7.945c0 .137.11.246.24.246h3.138a.251.251 0 0 0 .246-.253H80Zm59.638.267h3.282c.116 0 .191-.11.164-.219-.349-1.244-.568-3.07-.609-4.26-.068-2.338-.677-3.213-1.901-3.938 1.286-1.026 2.441-2.927 2.441-4.855v-.28c0-3.344-2.721-6.038-6.065-6.038h-5.435a.17.17 0 0 0-.171.178c.041.684.164 3.364.164 8.903 0 5.538-.13 9.483-.164 10.317 0 .096.075.178.171.178h3.118c.095 0 .17-.075.17-.17v-6.948c0-.047.042-.088.083-.088h1.463c1.545 0 2.598.588 2.694 3.186.096 2.626.328 3.596.424 3.904a.17.17 0 0 0 .164.116l.007.014Zm-2.817-10.687h-1.915a.079.079 0 0 1-.082-.082V3.802c0-.048.041-.082.082-.082h1.915a2.726 2.726 0 0 1 2.714 2.714 2.726 2.726 0 0 1-2.714 2.715v-.007Zm-7.96 10.468c-.348-1.244-.567-3.07-.608-4.26-.068-2.338-.677-3.213-1.901-3.938 1.285-1.026 2.441-2.927 2.441-4.855v-.28c0-3.344-2.721-6.038-6.065-6.038h-5.436a.17.17 0 0 0-.171.178c.034.684.164 3.364.164 8.903 0 5.538-.13 9.483-.164 10.317 0 .096.075.178.171.178h3.118a.17.17 0 0 0 .171-.17v-6.948c0-.047.041-.088.082-.088h1.463c1.546 0 2.599.588 2.694 3.186.096 2.626.329 3.596.424 3.904a.171.171 0 0 0 .164.116h3.289c.117 0 .192-.11.164-.219v.014Zm-6.263-10.475h-1.914a.079.079 0 0 1-.082-.082V3.795c0-.048.041-.082.082-.082h1.914a2.726 2.726 0 0 1 2.715 2.714 2.726 2.726 0 0 1-2.715 2.715v-.007ZM33.142 20c5.415 0 5.976-4.376 5.976-5.3 0-4.204-2.304-4.922-4.52-5.934-2.516-1.149-3.624-1.566-3.542-3.234.069-1.361.964-2.052 2.387-2.052 1.723 0 2.318 1.56 2.502 2.086a.141.141 0 0 0 .199.082c.58-.267 2.222-1.005 2.735-1.258a.138.138 0 0 0 .068-.178C38.017 1.709 36.328 0 33.696 0c-2.633 0-5.853 1.497-5.901 5.368-.041 3.24 1.436 4.806 4.465 5.976 2.338.902 3.651 1.299 3.624 2.94-.014.827-.568 2.359-2.366 2.359s-2.53-1.265-3.09-2.49a.143.143 0 0 0-.192-.074c-.533.246-2.092.964-2.571 1.182a.147.147 0 0 0-.075.185c1.04 2.838 2.954 4.404 5.559 4.547l-.007.007ZM19.925 0h-.171c-3.016 0-5.47 2.297-5.47 5.34v9.327c0 3.036 2.454 5.333 5.47 5.333h.17c3.016 0 5.47-2.297 5.47-5.333V5.34c0-3.043-2.454-5.34-5.47-5.34Zm2.03 14.667c0 1.121-.909 1.866-2.03 1.866h-.171c-1.122 0-2.031-.745-2.031-1.866V5.34c0-1.121.91-1.873 2.03-1.873h.172c1.121 0 2.03.745 2.03 1.873v9.327Z"></path></g><defs><clipPath id="a"><path fill="#fff" d="M0 0h176.67v20H0z"></path></clipPath></defs></svg>