<svg xmlns="http://www.w3.org/2000/svg" width="120" height="119" viewBox="0 0 120 119" fill="none"><path d="M60.8085 110V116.545H60.0158V110.703H56.9732V110H60.8085Z" fill="black"></path><path d="M51.2325 115.771L52.0869 109.282L52.8727 109.385L52.0183 115.874L51.2325 115.771Z" fill="black"></path><path d="M48.0339 108.55L46.3398 114.872L44.2035 114.3C43.7096 114.168 43.3267 113.975 43.055 113.721C42.7827 113.469 42.6096 113.177 42.5356 112.844C42.4616 112.511 42.4745 112.158 42.5743 111.786C42.6742 111.413 42.8388 111.103 43.0683 110.856C43.2978 110.609 43.5921 110.445 43.9511 110.364C44.3095 110.286 44.7337 110.313 45.2235 110.444L46.9523 110.907L46.767 111.599L45.0629 111.142C44.7254 111.052 44.4405 111.028 44.2082 111.072C43.9739 111.115 43.7861 111.215 43.645 111.371C43.5012 111.529 43.3954 111.734 43.3276 111.987C43.2598 112.241 43.2478 112.475 43.2918 112.689C43.3357 112.904 43.4478 113.091 43.6281 113.249C43.8079 113.41 44.0685 113.536 44.4102 113.628L45.7562 113.988L47.2683 108.345L48.0339 108.55ZM44.2969 110.593L43.502 107.336L44.3911 107.574L45.1613 110.824L44.2969 110.593Z" fill="black"></path><path d="M41.8048 106.691L39.2999 112.738L35.6503 111.226L35.9194 110.577L38.8367 111.785L39.6831 109.742L36.9548 108.612L37.2238 107.962L39.9522 109.092L40.8034 107.037L37.8389 105.809L38.1079 105.159L41.8048 106.691Z" fill="black"></path><path d="M30.0374 100.444L26.0528 105.637L25.4239 105.155L28.9805 100.52L26.5666 98.6675L26.9947 98.1096L30.0374 100.444Z" fill="black"></path><path d="M25.101 96.4395L25.6886 97.0271L19.3608 99.9559L18.7823 99.3774L21.7111 93.0496L22.2987 93.6372L19.7857 98.9164L19.8218 98.9525L25.101 96.4395ZM23.0761 98.0305L20.7077 95.6621L21.2049 95.1649L23.5733 97.5333L23.0761 98.0305Z" fill="black"></path><path d="M10.5461 85.507C10.2848 85.7022 10.1448 85.9626 10.1262 86.2883C10.1075 86.6139 10.1973 86.9484 10.3954 87.2916C10.5403 87.5425 10.7077 87.7387 10.8976 87.88C11.0863 88.0195 11.2821 88.1008 11.485 88.124C11.6867 88.1453 11.878 88.1037 12.0588 87.9993C12.2101 87.912 12.3194 87.8009 12.3868 87.6661C12.4512 87.5305 12.4863 87.3847 12.4922 87.2287C12.4963 87.0738 12.4852 86.9204 12.4589 86.7682C12.4307 86.6172 12.4001 86.4811 12.3671 86.3599L12.1897 85.6947C12.1432 85.5248 12.1019 85.3296 12.0658 85.1094C12.0286 84.8873 12.0211 84.6591 12.0433 84.4249C12.0626 84.1898 12.1322 83.9651 12.252 83.7508C12.3718 83.5365 12.5646 83.3526 12.8303 83.1992C13.1366 83.0223 13.4597 82.9428 13.7997 82.9606C14.1385 82.9765 14.4693 83.0956 14.7919 83.3177C15.1135 83.538 15.4 83.8659 15.6514 84.3014C15.8857 84.7073 16.0232 85.0966 16.0637 85.4694C16.1031 85.8402 16.0547 86.1782 15.9184 86.4833C15.781 86.7865 15.5637 87.0387 15.2664 87.2398L14.8574 86.5312C15.0608 86.3892 15.1963 86.2149 15.2641 86.0085C15.329 85.8013 15.3397 85.5811 15.2961 85.3479C15.2496 85.114 15.1613 84.8844 15.0314 84.6593C14.8801 84.3973 14.7018 84.1865 14.4966 84.027C14.2895 83.8686 14.0742 83.7727 13.8507 83.7393C13.6254 83.707 13.4094 83.7505 13.2027 83.8699C13.0145 83.9785 12.8917 84.1195 12.8344 84.2929C12.777 84.4663 12.7609 84.66 12.7862 84.8743C12.8115 85.0885 12.854 85.3112 12.9137 85.5425L13.1171 86.355C13.2454 86.8714 13.2661 87.3269 13.1791 87.7216C13.092 88.1163 12.8575 88.4239 12.4756 88.6444C12.1582 88.8277 11.8319 88.9017 11.4966 88.8664C11.1584 88.8304 10.8397 88.7044 10.5403 88.4885C10.2381 88.2718 9.98255 87.9827 9.77374 87.621C9.5628 87.2557 9.44081 86.8931 9.40776 86.5333C9.37286 86.1745 9.42003 85.8471 9.54927 85.5511C9.67744 85.2532 9.88187 85.0171 10.1625 84.8427L10.5461 85.507Z" fill="black"></path><path d="M6.05754 79.5737L5.75422 78.8414L9.75813 77.183C10.1715 77.0117 10.581 76.9563 10.9865 77.0166C11.3892 77.0758 11.7571 77.2429 12.09 77.5178C12.421 77.7935 12.6848 78.1685 12.8813 78.643C13.0778 79.1174 13.1565 79.5691 13.1174 79.9981C13.0764 80.4279 12.9348 80.8071 12.6927 81.1357C12.4478 81.4632 12.1186 81.7125 11.7053 81.8837L7.70134 83.5422L7.39802 82.8099L11.3429 81.1759C11.6382 81.0536 11.874 80.8798 12.0505 80.6545C12.2251 80.43 12.3285 80.1703 12.361 79.8755C12.3906 79.5796 12.3357 79.2633 12.1963 78.9267C12.0568 78.5901 11.872 78.3276 11.6418 78.1393C11.4096 77.9518 11.1528 77.8414 10.8715 77.808C10.5874 77.7735 10.2977 77.8174 10.0024 77.9397L6.05754 79.5737Z" fill="black"></path><path d="M4.15808 73.4825L10.4805 71.7884L10.6856 72.554L4.36322 74.2481L4.15808 73.4825Z" fill="black"></path><path d="M3.86057 68.8903L3.16346 68.982L2.5227 64.1149L3.2198 64.0232L3.48846 66.0638L9.28081 65.3012L9.38426 66.087L3.59192 66.8496L3.86057 68.8903Z" fill="black"></path><path d="M9.06982 61.3968H2.52437L2.52437 57.4466H3.22749L3.22749 60.6042H5.43914L5.43914 57.6511H6.14227L6.14227 60.6042H8.3667L8.3667 57.3954H9.06982L9.06982 61.3968Z" fill="black"></path><path d="M8.77132 41.1923L9.45049 41.3743L7.12112 50.0676L6.44195 49.8856L8.77132 41.1923Z" fill="black"></path><path d="M14.822 35.7058L9.15352 32.4331L9.54983 31.7467L14.6094 34.6679L16.1307 32.0329L16.7397 32.3844L14.822 35.7058Z" fill="black"></path><path d="M14.5752 24.1946L19.768 28.1792L19.2855 28.808L14.0927 24.8234L14.5752 24.1946Z" fill="black"></path><path d="M22.4282 25.035L17.7999 20.4067L19.3638 18.8428C19.7254 18.4812 20.0839 18.2462 20.4395 18.1377C20.7936 18.0277 21.1333 18.024 21.4587 18.1264C21.7842 18.2289 22.0832 18.4165 22.3559 18.6892C22.6286 18.9619 22.8147 19.2594 22.9141 19.5818C23.0136 19.9042 23.0083 20.241 22.8983 20.592C22.7868 20.9416 22.5518 21.2956 22.1932 21.6542L20.9276 22.9197L20.4214 22.4135L21.6689 21.166C21.916 20.919 22.0787 20.6839 22.157 20.4609C22.2369 20.2365 22.2444 20.024 22.1796 19.8236C22.1149 19.6202 21.9898 19.4259 21.8045 19.2406C21.6192 19.0553 21.4226 18.928 21.2147 18.8586C21.0067 18.7893 20.789 18.7931 20.5615 18.8699C20.3325 18.9453 20.093 19.108 19.8429 19.3581L18.8575 20.3434L22.9887 24.4746L22.4282 25.035ZM22.5277 20.7773L25.7458 21.7175L25.095 22.3683L21.8949 21.4101L22.5277 20.7773Z" fill="black"></path><path d="M27.1527 20.5701L23.1681 15.3772L26.3021 12.9724L26.7301 13.5303L24.225 15.4525L25.5713 17.2071L27.9142 15.4094L28.3422 15.9672L25.9994 17.765L27.3535 19.5297L29.8992 17.5763L30.3273 18.1342L27.1527 20.5701Z" fill="black"></path><path d="M38.446 13.5017L35.9412 7.45444L36.6734 7.15112L38.9092 12.5487L41.7202 11.3844L41.9893 12.034L38.446 13.5017Z" fill="black"></path><path d="M44.3829 11.2299L43.5802 11.445L44.2076 4.50055L44.9979 4.28878L49.0135 9.98916L48.2109 10.2042L44.8955 5.38828L44.8461 5.40151L44.3829 11.2299ZM44.0175 8.68084L47.2528 7.81394L47.4347 8.49311L44.1994 9.36001L44.0175 8.68084Z" fill="black"></path><path d="M61.0724 4.09091C61.034 3.76705 60.8785 3.51563 60.6057 3.33665C60.333 3.15767 59.9985 3.06818 59.6022 3.06818C59.3124 3.06818 59.0589 3.11506 58.8415 3.20881C58.6263 3.30256 58.458 3.43146 58.3366 3.59553C58.2172 3.75959 58.1576 3.94602 58.1576 4.15483C58.1576 4.32955 58.1991 4.47976 58.2822 4.60547C58.3675 4.72905 58.4761 4.83239 58.6082 4.91548C58.7403 4.99645 58.8788 5.06357 59.0237 5.11683C59.1686 5.16797 59.3018 5.20952 59.4232 5.24148L60.088 5.42045C60.2584 5.4652 60.4481 5.52699 60.6569 5.60582C60.8678 5.68466 61.0692 5.79226 61.2609 5.92862C61.4548 6.06285 61.6146 6.23544 61.7403 6.44638C61.866 6.65732 61.9289 6.91619 61.9289 7.22301C61.9289 7.5767 61.8362 7.89631 61.6508 8.18182C61.4676 8.46733 61.1991 8.69425 60.8454 8.86257C60.4939 9.03089 60.0667 9.11506 59.5638 9.11506C59.0951 9.11506 58.6892 9.03942 58.3461 8.88814C58.0052 8.73686 57.7368 8.52592 57.5407 8.25533C57.3469 7.98473 57.2371 7.67045 57.2116 7.3125L58.0297 7.3125C58.051 7.55966 58.1341 7.7642 58.279 7.92614C58.426 8.08594 58.6114 8.20526 58.8351 8.28409C59.061 8.3608 59.3039 8.39915 59.5638 8.39915C59.8664 8.39915 60.1381 8.35014 60.3788 8.25213C60.6196 8.15199 60.8103 8.01349 60.9509 7.83665C61.0915 7.65767 61.1618 7.44886 61.1618 7.21023C61.1618 6.9929 61.1011 6.81605 60.9797 6.67969C60.8582 6.54332 60.6984 6.43253 60.5003 6.3473C60.3021 6.26207 60.088 6.1875 59.8579 6.12358L59.0525 5.89347C58.5411 5.74645 58.1363 5.53658 57.838 5.26385C57.5397 4.99112 57.3905 4.63423 57.3905 4.19318C57.3905 3.8267 57.4896 3.5071 57.6878 3.23438C57.8881 2.95952 58.1565 2.74645 58.4932 2.59517C58.8319 2.44176 59.2101 2.36506 59.6278 2.36506C60.0496 2.36506 60.4246 2.4407 60.7528 2.59197C61.0809 2.74112 61.3408 2.94567 61.5326 3.20561C61.7265 3.46555 61.8287 3.76065 61.8394 4.09091L61.0724 4.09091Z" fill="black"></path><path d="M68.5102 3.17065L69.296 3.27411L68.7304 7.57084C68.672 8.01446 68.5152 8.39677 68.2602 8.7178C68.0076 9.03698 67.679 9.27203 67.2744 9.42293C66.8702 9.57172 66.4135 9.6126 65.9044 9.54558C65.3953 9.47855 64.9647 9.32086 64.6128 9.07251C64.261 8.82205 64.0034 8.50983 63.8399 8.13585C63.6788 7.76004 63.6274 7.35033 63.6858 6.90671L64.2515 2.60998L65.0373 2.71344L64.48 6.9468C64.4383 7.26366 64.4709 7.55486 64.5777 7.82037C64.6849 8.08377 64.858 8.3032 65.0971 8.47866C65.3386 8.65229 65.6399 8.76289 66.0012 8.81044C66.3624 8.858 66.6821 8.82917 66.9603 8.72396C67.2388 8.61663 67.4628 8.44948 67.6323 8.22251C67.8043 7.99371 67.9111 7.72088 67.9529 7.40401L68.5102 3.17065Z" fill="black"></path><path d="M74.7352 4.57105L73.0411 10.8935L72.2755 10.6883L73.9696 4.3659L74.7352 4.57105Z" fill="black"></path><path d="M78.8611 6.60962L79.1302 5.96002L83.6656 7.83865L83.3965 8.48825L81.495 7.7006L79.2592 13.0982L78.5269 12.7949L80.7627 7.39728L78.8611 6.60962Z" fill="black"></path><path d="M82.8974 14.804L86.1701 9.13545L89.5912 11.1106L89.2396 11.7195L86.505 10.1407L85.3991 12.056L87.9566 13.5326L87.6051 14.1415L85.0476 12.665L83.9354 14.5914L86.7143 16.1958L86.3627 16.8047L82.8974 14.804Z" fill="black"></path><path d="M100.393 24.7111L99.8959 25.2083L93.532 18.8443L94.0292 18.3471L100.393 24.7111Z" fill="black"></path><path d="M102.119 32.6945L107.787 29.4218L108.184 30.1082L103.124 33.0294L104.645 35.6644L104.036 36.0159L102.119 32.6945Z" fill="black"></path><path d="M112.211 38.2366L106.164 40.7414L105.861 40.0091L111.908 37.5043L112.211 38.2366Z" fill="black"></path><path d="M107.557 44.617L113.879 42.923L114.452 45.0592C114.584 45.5532 114.608 45.9812 114.525 46.3434C114.443 46.705 114.276 47.0011 114.025 47.2317C113.773 47.4623 113.461 47.6275 113.089 47.7274C112.716 47.8272 112.366 47.8395 112.037 47.7644C111.708 47.6893 111.419 47.5164 111.17 47.2456C110.923 46.9743 110.734 46.5938 110.602 46.1039L110.139 44.3751L110.831 44.1898L111.287 45.8939C111.378 46.2315 111.5 46.4899 111.654 46.6692C111.808 46.8506 111.988 46.9634 112.194 47.0075C112.403 47.053 112.634 47.0419 112.887 46.9741C113.14 46.9063 113.349 46.7997 113.513 46.6542C113.677 46.5088 113.782 46.3184 113.829 46.083C113.879 45.847 113.858 45.5582 113.766 45.2165L113.405 43.8705L107.762 45.3827L107.557 44.617ZM111.194 46.832L108.771 49.1489L108.533 48.2598L110.963 45.9676L111.194 46.832Z" fill="black"></path><path d="M109.062 50.9414L115.551 50.0871L116.067 54.0035L115.37 54.0953L114.957 50.9647L112.765 51.2533L113.15 54.1812L112.453 54.273L112.068 51.3451L109.862 51.6355L110.281 54.8168L109.584 54.9086L109.062 50.9414Z" fill="black"></path><path d="M109.536 64.2556L116.026 65.11L115.922 65.8958L110.13 65.1332L109.733 68.1498L109.036 68.058L109.536 64.2556Z" fill="black"></path><path d="M108.536 70.5327L108.751 69.73L114.451 73.7457L114.239 74.536L107.295 75.1634L107.51 74.3607L113.338 73.8975L113.352 73.8481L108.536 70.5327ZM110.926 71.4908L110.059 74.7261L109.38 74.5441L110.247 71.3088L110.926 71.4908Z" fill="black"></path><path d="M106.345 88.6042C106.645 88.7329 106.94 88.7239 107.232 88.5772C107.523 88.4305 107.768 88.1856 107.966 87.8424C108.111 87.5914 108.197 87.3484 108.225 87.1133C108.251 86.8801 108.223 86.6699 108.142 86.4826C108.06 86.2973 107.928 86.1524 107.747 86.048C107.596 85.9606 107.445 85.9215 107.295 85.9306C107.145 85.9426 107.001 85.9851 106.863 86.0579C106.727 86.1319 106.6 86.2182 106.481 86.3171C106.364 86.417 106.262 86.5115 106.173 86.6007L105.686 87.087C105.562 87.2122 105.414 87.3455 105.241 87.4869C105.067 87.6302 104.873 87.7508 104.659 87.8487C104.446 87.9495 104.217 88.0016 103.971 88.005C103.726 88.0084 103.47 87.9334 103.204 87.7799C102.898 87.6031 102.668 87.363 102.513 87.0597C102.357 86.7583 102.295 86.4123 102.326 86.0219C102.356 85.6332 102.497 85.2212 102.748 84.7857C102.983 84.3798 103.251 84.0661 103.554 83.8446C103.855 83.625 104.172 83.498 104.504 83.4636C104.836 83.4309 105.163 83.493 105.486 83.6499L105.077 84.3584C104.852 84.2533 104.633 84.223 104.42 84.2675C104.209 84.3149 104.013 84.4158 103.832 84.5701C103.653 84.7274 103.498 84.9186 103.368 85.1437C103.217 85.4057 103.124 85.6655 103.088 85.923C103.055 86.1816 103.079 86.416 103.162 86.6262C103.247 86.8374 103.392 87.0027 103.599 87.1221C103.787 87.2307 103.971 87.2666 104.15 87.2296C104.328 87.1926 104.504 87.1096 104.677 86.9806C104.85 86.8516 105.022 86.7034 105.192 86.5361L105.794 85.9537C106.177 85.5843 106.561 85.3387 106.947 85.2167C107.332 85.0947 107.716 85.144 108.098 85.3645C108.415 85.5478 108.642 85.7934 108.779 86.1013C108.917 86.4122 108.967 86.7513 108.93 87.1184C108.894 87.4885 108.771 87.8544 108.562 88.2161C108.351 88.5814 108.098 88.8684 107.803 89.0769C107.51 89.2865 107.203 89.4093 106.882 89.4454C106.56 89.4834 106.253 89.4244 105.962 89.2685L106.345 88.6042Z" fill="black"></path><path d="M103.451 95.4578L102.969 96.0866L99.5306 93.4483C99.1756 93.176 98.9228 92.8491 98.7723 92.4677C98.6222 92.0893 98.583 91.6872 98.6546 91.2614C98.7278 90.8369 98.9208 90.421 99.2334 90.0136C99.546 89.6062 99.8978 89.3122 100.289 89.1316C100.682 88.9522 101.081 88.8852 101.486 88.9306C101.892 88.979 102.273 89.1393 102.628 89.4117L106.066 92.05L105.584 92.6788L102.196 90.0794C101.943 89.8849 101.674 89.7675 101.391 89.7273C101.109 89.6884 100.832 89.7286 100.561 89.848C100.29 89.9703 100.043 90.1759 99.8216 90.465C99.5998 90.7541 99.4649 91.0453 99.417 91.3389C99.3707 91.6337 99.4034 91.9113 99.5152 92.1716C99.6274 92.4349 99.8102 92.6639 100.064 92.8584L103.451 95.4578Z" fill="black"></path><path d="M99.1258 100.149L94.4974 95.5202L95.0579 94.9598L99.6862 99.5881L99.1258 100.149Z" fill="black"></path><path d="M95.2974 102.702L95.7254 103.26L91.8308 106.248L91.4027 105.69L93.0356 104.437L89.479 99.8022L90.1079 99.3197L93.6644 103.955L95.2974 102.702Z" fill="black"></path><path d="M86.1827 102.1L89.4554 107.769L86.0344 109.744L85.6828 109.135L88.4174 107.556L87.3116 105.641L84.7541 107.117L84.4026 106.508L86.9601 105.032L85.8478 103.106L83.0689 104.71L82.7174 104.101L86.1827 102.1Z" fill="black"></path><path d="M68.8551 112.299L68.6731 111.62L77.3664 109.29L77.5484 109.969L68.8551 112.299Z" fill="black"></path><line x1="60.5" y1="22.5" x2="60.5" y2="92.5" stroke="black" stroke-linecap="round"></line><line x1="65" y1="88.7071" x2="60.7071" y2="93" stroke="black" stroke-linecap="round"></line><line x1="60.2929" y1="93" x2="56" y2="88.7071" stroke="black" stroke-linecap="round"></line></svg>