<svg xmlns="http://www.w3.org/2000/svg" width="1538" height="906"><path d="M0 0h1538v520H0z" style="fill:#fff;stroke:none"/><path d="M1228 905v-3q0-3 5-2 4 0 5-2 4-6-4-5-4 1-3-2c2-9 3-9-4-10q-11-2-20-12-13-12-11-34 1-10 4-16 12-26 47-24l14 2 5 2 1 9v9h-3l-3-1c0-3-6-9-11-10-5-3-16-2-21 1q-20 10-15 39 3 12 10 19 8 8 19 8 12 0 18-10 2-7 6-4v10l-2 9-4 2-13 2c-8 0-8 0-8 3q-1 2 2 2 6 1 7 6 1 8-5 12c-3 1-13 2-16 0m-595-4q-12-3-25-13l-8-5-12-1c-13-1-18-2-26-8-19-14-20-50-2-67 14-13 39-16 56-6 24 13 26 51 5 70l-7 6c-3 0 21 13 28 16q11 4 23 1 6-3 6 1 2 3-5 5c-8 3-23 4-33 1m-29-31c17-8 20-36 6-54-13-17-35-14-43 5-8 17 1 43 16 50q10 5 21-1M78 881q-5-3-17-22c-12-21-15-24-18-24h-3v11c0 21 2 28 8 29q3 1 3 4v2H10v-2q0-3 3-4t5-3c2-3 2-4 2-42s0-39-2-42q-2-2-5-3l-3-3c0-3 0-3 25-3 27-1 33 0 41 3 6 3 12 13 12 22s-7 20-17 25l-5 3 11 16c13 19 17 25 21 27 4 1 4 6 1 6-4 2-18 1-21 0m-25-56c14-4 18-22 8-32q-7-7-16-5h-5v38h5zm231 56q-9-4-14-9c-5-7-5-10-5-37 0-28-1-31-6-33l-3-3c0-2 1-2 17-2 17 0 17 0 17 2l-2 2-4 3-3 2v27c0 26 0 28 2 32q6 8 17 8 12-1 17-11c2-5 2-6 2-30l-1-27-5-4-2-2c0-2 1-2 13-2 13 0 14 0 14 2q0 2-3 2c-4 2-5 4-5 33l-1 27-3 6q-5 10-16 14zm390 0q-9-4-14-9c-4-7-5-11-5-37 0-27-1-31-6-33l-3-3c0-2 1-2 17-2 17 0 17 0 17 2l-2 2-5 3c-2 3-2 5-2 27 0 27 0 32 5 37 8 8 25 6 30-4 3-7 4-15 4-36-1-22-1-25-7-27l-2-2c0-2 1-2 13-2 13 0 14 0 14 2l-3 3-4 3-1 29-1 27-3 6q-5 10-16 14zm316 0q-5-3-16-20c-9-16-10-18-13-18-2 0-2 0-2 13 0 15 1 19 6 20q3 0 3 3v2h-34v-2q0-3 3-3c6-1 6-4 6-39l-1-31-2-2-4-3-2-2q-1-2 7-2l47 2q9 5 10 19 0 12-13 20l-4 3 10 14q13 22 16 21c2 0 2 5 0 5-3 2-14 1-17 0m-18-47q7-4 8-11 1-9-5-16-4-4-13-3h-3v31h5zm445 46-6-1-2-10-1-10h3l3 1c0 2 6 10 10 12 10 5 23 0 23-9q1-7-13-15-18-11-21-18-4-10-1-20 3-7 13-13c5-2 22-2 29 0l5 2v18h-3q-3 1-4-2-3-9-10-11c-12-3-22 9-15 18l15 11q18 12 19 19 4 19-15 28c-6 2-21 3-29 0m-1310-2q0-2 2-2 3 0 5-3c2-2 2-3 2-34l-1-33q-3-5-6-5-2 0-2-2v-3h60v21h-3q-3 0-4-4c-2-6-5-7-17-8h-10v28h8q13-1 14-7 0-2 3-2h2v26h-2q-4 0-3-2 1-6-13-7h-9v14c0 17 0 17 11 17q17 0 20-10 4-5 6-1c1 1-2 13-4 17l-1 3h-58zm77 1q0-3 3-3c5-1 5-3 6-35 0-33 0-36-6-39q-3-1-3-4v-2h23c24 1 26 1 33 7s9 18 4 27q-6 12-24 14h-6l-1-4-2-3 4-1q7-2 12-7 2-3 2-8 0-15-15-17h-5v33c0 37 1 38 6 39q3 0 3 3v2h-34zm166-1q0-2 2-2l4-2 2-2 1-31c0-34 0-37-6-39l-3-3c0-2 1-2 15-2 29-1 35 0 40 2q9 4 10 14l-1 8q-2 7-10 12l-5 2 4 1q16 6 14 24-1 13-14 18c-4 2-6 3-29 3h-24zm44-7q8-5 6-15-1-17-19-17h-6v15c0 15 0 15 3 17 3 3 12 3 16 0m-4-42q9-3 9-13-2-12-18-12h-6v27h5zm41 49 2-2q3-1 5-3c2-3 2-4 2-34l-1-33q-3-5-6-5-2 0-2-2c0-2 0-2 18-2s18 0 18 2l-2 2-5 2-3 3v63l2 2 11 1q13-1 16-9 3-6 7-3 1 0-1 9l-4 10-1 2h-56zm70 1q0-3 3-3c5-1 6-4 6-38 0-28 0-30-2-33l-5-4-2-2c0-2 0-2 17-2s17 0 17 2q0 2-3 2l-4 4c-1 2-2 6-2 33 0 34 1 37 6 38q3 0 3 3v2h-34zm239 0q0-3 3-3c5-1 6-4 6-38 0-29 0-30-2-33l-5-4q-3 0-2-3v-2h59v11c0 10 0 10-3 10l-3-3q0-8-17-9h-10l-1 5v23h8q14-1 14-6l3-3h3v26h-3q-2 1-2-2 0-7-15-7h-8v14c0 17 0 17 12 17q16 1 19-9 3-4 5-4l2 1c1 2-3 18-5 20l-30 1h-28zm110 0q0-3 3-4l5-4c2-3 2-4 2-41 0-42 0-43-7-45q-3-1-3-4v-2h70v25h-3q-4 1-3-2-1-7-8-11l-15-2h-11v34h8q15 1 17-6 3-4 5-4h3v30h-3q-4 0-4-2-2-9-20-9h-6v18c0 20 1 23 7 25q4 1 4 4v2h-41zm160 0q-1-3 2-3 3 2 14-25l20-53q0-2 5-2h4l14 35c14 37 17 43 21 45q2 0 2 3c0 2 0 2-17 2h-17v-2q0-3 3-3 6 0 1-14l-3-8h-23l-3 7q-5 13 1 15 2 0 2 3v2h-26zm46-35-8-22-2 4-4 11-3 7h17m43 35q0-3 3-3c5-1 5-3 6-35 0-34 0-37-6-39l-3-3c0-2 1-2 11-2h11l7 8 37 45 2 3v-23c-1-25-1-27-7-29l-2-2c0-2 1-2 13-2 13 0 14 0 14 2l-2 2-5 3c-2 3-2 4-2 40v37h-5q-4 1-7-4l-47-58v25c1 27 1 31 6 32q3 0 3 3v2h-27zm175 0 1-3q4-1 9-10l23-62 3-8h5l4 1 13 34 15 37q5 7 8 8l1 3v2h-34v-2q0-3 2-3 7 1 1-15l-2-8h-24l-2 7q-6 18 1 16 2 0 2 3v2h-26zm42-45-4-12-5 10-4 11 8 1h9zm46 45q0-3 2-3l4-2c2-2 2-4 3-33l-1-34q-2-5-6-6-2 0-2-2c0-2 0-2 17-2 16 0 17 0 17 2l-3 3-4 4a320 320 0 0 0 1 68l4 2q2 0 2 3v2h-34zm112-1q0-2 2-2 3 0 5-3c2-2 2-3 2-34l-1-33q-3-5-6-5-2 0-2-2v-3h60v21h-3q-3 0-4-4c-2-6-5-7-17-8h-10v28h6q13 0 15-6 1-3 4-3h2v26h-2q-4 1-3-2 1-6-13-7h-9v14c0 17 0 17 11 17q18 0 20-10 4-5 6-1c1 1-2 13-4 17l-1 3h-58zM134 787l-3-2 6-9 8-9 14 3-22 19zM7 718h1523v9H7zm579-20q-12-6-11-19 1-8 10-11l5-3-3-1-3-4c0-2 7-9 9-9l-1-4c-6-8-1-21 8-26 5-2 7-3 25-1 11 0 11 0 10 2v3l-4 1h-4l1 6q1 20-23 21-11 1-8 4l11 4c16 5 19 8 19 17q-2 14-19 20zm23-7q13-8 7-15c-3-3-16-7-19-7-7 2-14 10-12 16 1 9 13 12 24 6m2-45c7-4 9-14 5-19-6-7-17 1-17 12q0 4 3 7 5 4 9 0m38 23q-6-1-7-9c-1-13 10-32 23-39 6-3 19-3 27 0q2 0-1 10c-4 14-6 28-5 30q1 3 4 1h4q3 3-5 5-11 4-13-2v-3l-5 3c-6 4-16 6-22 4m18-9 6-4c2-2 6-17 7-26q2-5-3-5-9-3-19 14-8 18-3 24c3 1 4 1 12-3m473 9q-6-1-7-7c-2-7 2-20 10-30q12-16 32-13l8 2-3 14-3 20-1 7 5-1q4 0 4 2 1 3-6 4-12 4-12-1l-1-3-6 2c-4 3-14 5-16 5zm17-8 6-5c2-2 6-15 8-27q2-3-3-4-4-2-8 1-10 6-16 25-5 19 13 10M72 667l4-21c5-20 5-21 0-20q-4 2-3-1-1-3 6-4l9-2q4-1 4 3l-4 20-4 19 5 1q6-2 5 1t-6 4l-10 2q-5 1-6-2m39 0-2-2 7-34c5-18 8-35 8-37q0-4-5-1-2 1-2-2-1-4 13-6 8 0 6 2l-4 18-3 18 4-1q18-8 25 1c3 5 1 18-4 28-3 6-11 14-16 16-5 3-24 3-27 0m25-6c5-4 11-16 12-26q2-17-16-5-4 2-6 6l-5 24c0 4 10 5 15 1m38 5q-3-3-3-10c1-17 10-32 23-36q11-3 17 2 3 1 2 7-1 16-23 19l-7 1c-2 2-1 8 0 10q2 7 15 1 6-4 7-2 4 4-7 7-8 4-14 4-7 1-10-3m18-24c9-2 14-11 10-16q-4-4-9 0-5 6-9 15 0 3 2 2zm34 27 8-39v-4h-4q-5 2-4-1 0-3 11-6 8-2 8 4v2l3-2q9-7 15-3l4 2q-4 14-7 13-2 1-2-3-2-12-11 0-5 6-8 28l-3 8zm50-1c-1-2 0-5 5-31l3-11h-4l-3-1 3-4q5-1 9-9 3-7 7-6 3-1 1 3l-1 7v4h4q7 0 4 4 0 2-5 2c-6 0-5-2-9 20-3 16-3 18 2 16q6-2 5 1t-6 4c-6 2-14 3-15 1m40-2c-7-7-2-30 10-40q8-8 17-8c3 0 10 3 11 5q2 6-1 14-7 11-23 11h-6v5q-1 16 15 7l7-3 1 3q1 1-7 5c-6 4-8 4-14 4q-8 1-10-3m18-24q8-3 11-9 2-3-1-6-3-6-10 0c-3 3-8 12-8 15zm376 26c-2-1-1-7 4-27l10-47q0-2-4-2-4 2-3-1-2-4 12-6 7-1 7 3a605 605 0 0 1-15 71v3h4q6-2 5 1t-6 4q-11 3-14 1m37 0c-1-2 0-6 4-23l4-18q0-3-5-1-4 2-3-1 0-3 12-6 8-1 8 2l-5 20-4 20 6 1q5-2 4 1t-6 4q-12 4-15 1m37-1 1-7 7-33-3-1q-7-1 1-5 4-2 8-9 3-7 6-6h3l-2 6-1 7 5 1q7-1 4 4 1 3-6 2h-5l-3 17-3 18q0 3 4 1 6-2 5 1 1 3-6 4-13 5-15 0m41 0q-3-2-3-9c-1-13 5-27 14-33q15-12 25-3 4 3 3 8-3 16-24 18-11-1-7 8 2 12 15 4 8-4 8 0c0 3-12 8-21 9q-7 0-10-2m22-27q10-6 5-14c-4-5-13 1-17 13l-1 4h4zm239 29 8-39v-4h-4q-5 2-4-1-1-2 10-5 10-4 9 3v2l3-2q9-7 15-3l4 2-2 7q-2 7-5 6-2 1-2-3c0-7-6-8-10-1-4 5-5 10-8 24l-3 12zm115-2q-2-1 4-25l3-15-2-1q-6-1-1-4 5-4 9-10 3-7 7-6 3-1 1 3l-1 7v4h4q7 0 4 4 0 3-5 2c-6 0-5-2-9 20-3 16-3 18 2 16q6-2 5 1t-6 4c-6 2-14 3-15 0m41-1c-8-7-3-30 9-40q9-8 17-8c3 0 10 3 11 5q2 6-1 14-7 11-23 11h-6v6q0 14 15 6l7-3 1 3q1 1-7 5c-6 4-8 4-14 4q-7 1-9-3m20-26c7-3 11-11 6-14q-4-4-9 1c-3 3-8 12-8 15 0 2 7 1 11-2m31 28 8-38q0-4-4-3t-4-2q-2-2 4-4l9-2q5-3 6 5l6-3c7-3 8-4 13-1l3 2-2 6q-2 8-5 7-3 1-2-3c0-9-8-7-13 2l-5 19-3 14zm50 0 3-15q4-13 4-20v-7h-3q-4 1-4-2-2-2 4-3 12-4 13-1l2 4v2l7-3c8-4 19-6 22-4q3 1 1 6l-3 17-3 16q-2 5 4 3l4 2q2 3-6 4-12 4-15 1l4-20c4-20 5-22 2-23q-5 1-14 7c-4 4-4 5-7 15l-5 21zm68-1 4-20 4-20q0-3-3-1l-4 1v-2q0-3 5-4 18-6 14 2l-8 38 5 1q6-2 5 1c-1 5-20 8-22 4m38 0c-1-1 0-6 4-23 5-20 4-18 1-18q-7-1 1-5 4-2 7-8 4-7 6-7c3 0 3 0 1 11v3h5q6 0 4 2v3l-6 1h-5l-3 17-3 18q1 3 4 1 6-2 5 1 1 3-6 4-13 4-15 0m41 0c-3-3-3-3-3-13 0-9 1-10 4-17q7-13 18-17c14-5 24 4 18 16q-7 11-23 12-7-1-7 3 0 6 3 10t13-1q7-4 7-2 4 4-6 7-6 4-14 4-7 1-10-2m22-27q11-7 4-15h-5q-5 3-11 14l-1 4h4zM0 666l2-2q5 0 8-7c3-6 11-48 11-57 0-7 0-7-3-9q-11-5 13-5c14 0 16 0 16 2l-3 2c-7 1-9 7-15 38-6 29-6 29-3 31 2 2 3 2 11 2q13 0 18-8 3-6 5-4 2 1-1 6l-3 9-3 4H26c-25 0-26 0-26-2m506 1 4-4 6-6c2-6 11-48 11-57 0-7 0-7-3-9-7-5-5-5 25-5 28 0 29 0 28 2l-2 9q-1 8-3 7-2 1-2-2 2-10-18-9h-10l-3 13-3 14q-1 2 9 2 12 1 15-6 5-6 6 0l-6 21q-2 0-2-3l-3-4c-3-1-18-2-20-1l-5 24q0 6 2 7l12 1q13 0 18-8l4-4q3-1-1 9c-4 11-2 10-32 10zm508 0 3-3c6-2 8-8 15-40 5-28 5-32-1-34l-2-2q-1-2 28-2c28 0 28 0 27 2l-2 9q-1 8-3 7-2 1-2-3 1-8-19-8l-8 1-2 13-3 14c0 2 15 1 19 0l4-5 3-3c2 0 2-1 0 13q-3 12-4 11l-2-2c0-4-10-8-18-6h-4l-2 11c-4 20-3 22 2 24q10 4-13 4zm-587-22q-7-4-8-13 1-13 15-15 14 0 15 15c0 11-11 18-22 13m509 1-6-5q-3-4-3-9 2-15 15-15 7-1 10 3c7 5 8 15 2 21q-7 9-18 5m-598-36c-2-2-2-2 10-15l3-4 6 1 6 2-22 18zm509 0-2-2 7-8 9-9 11 3c-1 1-19 16-22 17zm665 0-3-2 8-8 9-9 11 3c0 1-19 16-22 17zM85 605c-4-4 0-12 6-12q6 0 6 7c0 6-8 10-12 5m675 1q-5-5 0-11c4-4 12-1 12 4 0 6-8 10-12 7m664-1c-4-4 0-12 6-12s9 7 4 12q-5 4-10 0m-876-29q-4 0 6-10l7-8 6 1 6 2-22 17z" style="fill:#000;stroke:none"/><path d="m880 520 2-6q6-15 14-28c7-10 20-24 26-27q11-5 27-4l49 8c9 2 22 3 28 1q18-4 22-21 3-13 0-21c-4-6-3-8 5-16l8-8c0-3-6-14-7-14l-4-2-3-1 5-3q11-6 12-13l-3-9q-5-10-2-15c1-3 3-4 14-7q12-2 13-11 1-5-2-13c-3-5-18-29-23-34-6-8-13-21-15-29-2-7-2-7-1-16 4-20 2-36-8-67l-11-33c-4-8-3-10 5-16l8-8c2-5 0-13-5-16q-4-2-8 5-3 5-5 5-6 0-2-5 4-6-2-5c-4-1-5-2-13-10a87 87 0 0 0-30-21l-6-3 15 1c19 1 23-2 27-15 3-9 5-13-2-20L983 0h555v520z" style="fill:#e2011c;fill-opacity:1;stroke:none"/><path d="m407 520-8-1 25-16q10-6 9-7l-13-1c-10-1-12 0-15 1l-17 5c-18 5-24 8-30 16l-2 3H0V0h706l-13 9-20 11c-11 9-25 29-29 41q-1 5-6 8-10 6-20 22l-28 48c-4 12-4 21 3 58l20 77 2 4q0 3 7 11c12 12 20 24 20 28q-1 5-12 2t-26-17l-8-7 7 9c7 9 9 11 7 14q-3 5-10 2-8-1-7 5 1 5-2 3-5-2-15-3c-6-1-6-1-10-6q-3-4-7-6a428 428 0 0 0-101-10c-11 1-14 2-20 5-10 5-28 21-28 26q1 3 8-2c14-8 61-20 84-21q18-1-3 2l-20 5-47 13-6 2h9c43 1 93 14 113 32 8 7 11 8 24 7 18-2 40-11 50-19q7-5 8-3l-8 25q-4 6-2 7 2 0 1 2l2 1q4 2-3 3-8 3-9 5l1 1q4 1-2 3-4 1-2 1v1l-1 3-3 3q-7 4 3 3h5l-31 17h2l-23 13-35 22q-4 6 3 4h11l-2 1-3 2-4 2q-2 0-5 3l-4 4h4c45-3 53-5 71-14a172 172 0 0 0 50-38q3 2-2 11-4 11-29 28l-21 12-37 7c-47 7-65 12-83 24l-7 4q-2-1-5 2-8 7 10-2c11-6 16-6 7-1q-16 11-27 11zm-59-58 13-7a195 195 0 0 1 63-25l6 2q6 0 3 1l-2 1c0 2 9 2 13 0l8-2 5-2q0-3 4-1c4 1 13-1 37-7q24-6 40-14l8-3-8-5c-19-13-38-20-81-32l-15-5h1q8 2 8 0t-10-3-5-3c6 0-5-4-17-6q-12-1-5-3c3-2 6-8 5-10q1-3-6 1-15 11-23 27c-2 6-1 7 13 7 11 1 11 1 8 2l-7 3q-14 3-9 7 3 1-2 3-4 2-2 2l7 1q5 0 6 2l3 2-5 3-6 6-7 9q-6 6-6 8l-10 9q-23 18-22 22 0 3-3 5-7 5-4 6zm117-12 10-2 3-2-5-2-5-3-5 2-8 3q-11 6-1 6zm-169-45a355 355 0 0 1 70-58q0 3 8-2c5-3 8-6 15-19 7-12 10-16 20-23l22-16v2c3 0 13-4 14-5 0-2-11-4-19-4-6 1-8 2-16 6-18 9-31 20-56 45q-28 28-39 33-3 1-7 9c-5 11-15 27-24 40q-14 19-4 9zm223 109c27-5 30-6 48-7 21 0 24-1 37-7q5-3 6-1 2 1 21-12l18-11q8-5 10-3c4 0 4 0 8-3q16-15 30-15 4 0 4 2l1 1q5-2-5 5-13 11 1 3c8-6 8-6 8-4q0 3-9 10c-13 10-22 19-36 35l-12 13H490zm0-203h4-4" style="fill:#003189;fill-opacity:1;stroke:none"/><path d="M986 273q-7-2 3-3 8 0 8-6 0-2-2-1-3 1-4-2l-6-2c-6-1-15-6-13-8l6-2q6 1 7-3t4-4l5-3 10-8q11-7 10-10c-2-2-17-4-24-3-8 0-22 3-28 6q-9 3 4-5c11-7 33-13 45-13l22 5c3 3-1 14-7 19l-3 2 2 3 2 2-2 2-4 2-5 3q-4 4-2 6v4l-1 8q2 9-5 10z" style="fill:#7f7f7f;stroke:none"/></svg>