<svg xmlns="http://www.w3.org/2000/svg" width="177" height="20" viewBox="0 0 177 20" fill="none"><g clip-path="url(#clip0_709_19904)"><path d="M149.306 19.6649C149.279 18.6529 149.135 12.7589 149.135 10.0239C149.135 7.28883 149.279 1.40165 149.306 0.389685C149.306 0.307634 149.244 0.239258 149.162 0.239258H145.99C145.908 0.239258 145.839 0.307634 145.846 0.389685C145.874 1.34695 146.01 6.7008 146.01 10.0375C146.01 13.3743 145.867 18.7076 145.846 19.6649C145.846 19.7469 145.908 19.8153 145.99 19.8153H149.162C149.244 19.8153 149.313 19.7469 149.306 19.6649Z" fill="black"></path><path d="M176.663 19.6102C176.315 18.3658 176.096 16.5401 176.055 15.3504C175.986 13.0119 175.378 12.1367 174.154 11.4119C175.439 10.3863 176.595 8.48541 176.595 6.55721V6.27686C176.595 2.93327 173.874 0.239258 170.53 0.239258H165.094C164.998 0.239258 164.916 0.321309 164.923 0.417036C164.957 1.1008 165.087 3.78114 165.087 9.3196C165.087 14.8581 164.957 18.8034 164.923 19.6375C164.923 19.7333 164.998 19.8153 165.094 19.8153H168.212C168.308 19.8153 168.383 19.7401 168.383 19.6444V12.6974C168.383 12.6495 168.424 12.6085 168.472 12.6085H169.935C171.481 12.6085 172.534 13.1965 172.629 15.7948C172.725 18.4205 172.957 19.3914 173.053 19.6991C173.074 19.7675 173.142 19.8153 173.217 19.8153H176.499C176.616 19.8153 176.691 19.7059 176.663 19.5965V19.6102ZM170.4 9.13498H168.486C168.438 9.13498 168.404 9.1008 168.404 9.05293V3.79481C168.404 3.74695 168.445 3.71276 168.486 3.71276H170.4C171.891 3.71276 173.115 4.93669 173.115 6.42729C173.115 7.91789 171.891 9.14182 170.4 9.14182V9.13498Z" fill="black"></path><path d="M114.393 16.3282C114.393 16.2462 114.325 16.1778 114.243 16.1846L108.294 16.3487C108.246 16.3487 108.205 16.3145 108.205 16.2667V11.4462C108.205 11.3983 108.239 11.3573 108.294 11.3641C108.82 11.3846 111.569 11.494 112.246 11.5282C112.328 11.5282 112.396 11.4667 112.396 11.3846V8.22564C112.396 8.14359 112.328 8.07522 112.246 8.08205L108.294 8.24616C108.246 8.24616 108.205 8.21197 108.205 8.1641V3.82222C108.205 3.77436 108.246 3.73333 108.294 3.74017L114.243 3.90427C114.325 3.90427 114.393 3.84274 114.393 3.76069V0.382907C114.393 0.300856 114.331 0.239318 114.249 0.239318H104.827C104.69 0.23248 104.581 0.341882 104.581 0.478634C104.615 1.5453 104.745 5.79829 104.745 9.3265C104.745 12.8547 104.608 18.3453 104.581 19.5624C104.581 19.6991 104.684 19.8085 104.82 19.8085H114.386V16.3214L114.393 16.3282Z" fill="black"></path><path d="M51.4389 19.5692V16.3214C51.4389 16.2393 51.3705 16.1709 51.2885 16.1778L45.3398 16.3419C45.2919 16.3419 45.2509 16.3077 45.2509 16.2598V11.4393C45.2509 11.3915 45.2919 11.3504 45.3398 11.3573C45.8594 11.3778 48.615 11.4872 49.2919 11.5214C49.374 11.5214 49.4423 11.4598 49.4423 11.3778V8.21881C49.4423 8.13675 49.374 8.06838 49.2919 8.07522L45.3466 8.23932C45.2987 8.23932 45.2577 8.19829 45.2577 8.15043V3.80855C45.2577 3.76069 45.2987 3.71966 45.3466 3.7265L51.2953 3.8906C51.3774 3.8906 51.4458 3.82906 51.4458 3.74701V0.382907C51.4458 0.300856 51.3842 0.239318 51.3022 0.239318H41.8799C41.7432 0.23248 41.6338 0.341882 41.6338 0.478634C41.668 1.5453 41.7979 5.79829 41.7979 9.3265C41.7979 12.8547 41.6611 18.359 41.6338 19.5624C41.6338 19.6991 41.7364 19.8017 41.8731 19.8017H51.1996C51.3363 19.8017 51.4389 19.6923 51.4389 19.5624V19.5692Z" fill="black"></path><path d="M162.044 0.239318H152.622C152.485 0.23248 152.376 0.341882 152.376 0.478634C152.41 1.5453 152.54 5.79829 152.54 9.3265C152.54 12.8547 152.41 18.3453 152.376 19.5624C152.376 19.6991 152.479 19.8085 152.615 19.8085H162.181V16.3214C162.181 16.2393 162.113 16.1709 162.031 16.1778L156.082 16.3419C156.034 16.3419 155.993 16.3077 155.993 16.2598V11.4393C155.993 11.3915 156.034 11.3504 156.082 11.3504C156.615 11.3709 159.35 11.4803 160.027 11.5145C160.109 11.5145 160.178 11.453 160.178 11.3709V8.21197C160.178 8.12992 160.109 8.06154 160.027 8.06838L156.075 8.23248C156.027 8.23248 155.986 8.19829 155.986 8.15043V3.80855C155.986 3.76069 156.027 3.71966 156.075 3.7265L162.024 3.8906C162.106 3.8906 162.174 3.82906 162.174 3.74701V0.382907C162.174 0.300856 162.106 0.239318 162.031 0.239318H162.044Z" fill="black"></path><path d="M102.175 6.76233V6.31105C102.175 2.96746 99.4534 0.252933 96.1098 0.252933L90.7354 0.239258C90.5987 0.239258 90.4893 0.34866 90.4893 0.492249C90.5234 1.54524 90.6602 5.72302 90.6602 9.62729C90.6602 13.5316 90.5371 18.441 90.5029 19.5897C90.5029 19.7264 90.6123 19.8427 90.7491 19.8427C90.7491 19.8427 93.1012 19.829 93.8807 19.829C94.0175 19.829 94.1269 19.7128 94.12 19.576C94.0858 18.694 93.9628 15.6307 93.9628 12.9162C93.9628 12.8683 94.0038 12.8341 94.0517 12.8341H96.1166C99.4602 12.8341 102.182 10.1128 102.182 6.77601L102.175 6.76233ZM98.6807 6.99481C98.6807 8.28028 97.6277 9.33327 96.3422 9.33327H94.0517C94.0038 9.33327 93.9696 9.29225 93.9696 9.25122V3.82216C93.9696 3.7743 94.0106 3.73327 94.0517 3.73327H96.3422C97.6277 3.73327 98.6807 4.78627 98.6807 6.07174V6.98798V6.99481Z" fill="black"></path><path d="M10.9812 0.232422C10.3932 0.232422 8.19145 0.232422 7.52821 0.232422C7.43248 0.232422 7.35727 0.321311 7.37094 0.417037C7.45299 0.970883 7.68547 2.7555 7.68547 5.71618V14.2017C7.68547 15.3299 6.84445 16.294 5.77778 16.4034C5.16923 16.4717 4.59487 16.2734 4.14359 15.8632C3.70598 15.4666 3.44616 14.9538 3.44616 14.2905C3.44616 13.8324 3.52821 13.3743 3.57607 13.135C3.59658 13.0461 3.52821 12.9572 3.43248 12.9572H0.225643C0.157267 12.9572 0.102566 12.9982 0.082053 13.0598C0.0410273 13.1965 -0.00683594 13.4974 -0.00683594 14.1196C-0.00683594 17.764 2.31111 19.7264 5.2718 19.87C6.79658 19.9452 8.26667 19.4051 9.38804 18.3316C10.5026 17.2649 11.118 15.8222 11.118 14.2837V0.382849C11.118 0.300798 11.0564 0.239259 10.9744 0.239259L10.9812 0.232422Z" fill="black"></path><path d="M66.1542 6.76233V6.31105C66.1542 2.96746 63.4328 0.252933 60.0893 0.252933L54.7149 0.239258C54.5781 0.239258 54.4688 0.34866 54.4688 0.492249C54.5029 1.54524 54.6397 5.72302 54.6397 9.62729C54.6397 13.5316 54.5166 18.441 54.4824 19.5897C54.4824 19.7264 54.5918 19.8427 54.7286 19.8427C54.7286 19.8427 57.0807 19.829 57.8602 19.829C57.997 19.829 58.1064 19.7128 58.0995 19.576C58.0653 18.694 57.9423 15.6307 57.9354 12.9162C57.9354 12.8683 57.9764 12.8341 58.0243 12.8341H60.0893C63.4328 12.8341 66.1542 10.1128 66.1542 6.77601V6.76233ZM62.6602 6.99481C62.6602 8.28028 61.6072 9.33327 60.3217 9.33327H58.0311C57.9833 9.33327 57.9491 9.29225 57.9491 9.25122V3.82216C57.9491 3.7743 57.9833 3.73327 58.0311 3.73327H60.3217C61.6072 3.73327 62.6602 4.78627 62.6602 6.07174V6.98798V6.99481Z" fill="black"></path><path d="M79.9999 19.5623C79.9657 18.3999 79.8358 13.4085 79.8358 9.61362C79.8358 5.81875 79.9657 1.53841 79.9999 0.47174C79.9999 0.334988 79.8973 0.225586 79.7606 0.225586H76.629C76.4922 0.225586 76.3828 0.341825 76.3896 0.478577L76.5537 8.00678C76.5537 8.05465 76.5127 8.09567 76.4649 8.09567L71.9589 8.06832C71.911 8.06832 71.87 8.0273 71.8768 7.97943L72.0409 0.492253C72.0409 0.3555 71.9315 0.246099 71.8016 0.246099H68.6631C68.5264 0.246099 68.417 0.362338 68.417 0.49909C68.4512 1.49738 68.5811 5.31276 68.5811 9.62046C68.5811 13.9281 68.4512 18.4752 68.417 19.5692C68.417 19.7059 68.5196 19.8153 68.6563 19.8153H71.7948C71.9315 19.8153 72.0409 19.7059 72.0341 19.5692L71.87 11.6239C71.87 11.576 71.911 11.535 71.9589 11.535H76.4649C76.5127 11.535 76.5537 11.576 76.5469 11.6239L76.3828 19.5692C76.3828 19.7059 76.4922 19.8153 76.6221 19.8153H79.7606C79.8973 19.8153 80.0067 19.6991 80.0067 19.5623H79.9999Z" fill="black"></path><path d="M139.637 19.829H142.919C143.035 19.829 143.111 19.7196 143.083 19.6102C142.735 18.3658 142.516 16.5401 142.475 15.3504C142.406 13.0119 141.798 12.1367 140.574 11.4119C141.859 10.3863 143.015 8.48541 143.015 6.55721V6.27686C143.015 2.93327 140.294 0.239258 136.95 0.239258H131.514C131.418 0.239258 131.336 0.321309 131.343 0.417036C131.384 1.1008 131.507 3.78114 131.507 9.3196C131.507 14.8581 131.377 18.8034 131.343 19.6375C131.343 19.7333 131.418 19.8153 131.514 19.8153H134.632C134.728 19.8153 134.803 19.7401 134.803 19.6444V12.6974C134.803 12.6495 134.844 12.6085 134.885 12.6085H136.348C137.894 12.6085 138.947 13.1965 139.042 15.7948C139.138 18.4205 139.371 19.3914 139.466 19.6991C139.487 19.7675 139.555 19.8153 139.63 19.8153L139.637 19.829ZM136.82 9.14182H134.906C134.858 9.14182 134.824 9.10763 134.824 9.05977V3.80165C134.824 3.75379 134.865 3.7196 134.906 3.7196H136.82C138.311 3.7196 139.535 4.94353 139.535 6.43413C139.535 7.92473 138.311 9.14866 136.82 9.14866V9.14182Z" fill="black"></path><path d="M128.862 19.6102C128.513 18.3658 128.294 16.5401 128.253 15.3504C128.185 13.0119 127.576 12.1367 126.352 11.4119C127.638 10.3863 128.793 8.48541 128.793 6.55721V6.27686C128.793 2.93327 126.072 0.239258 122.728 0.239258H117.292C117.197 0.239258 117.115 0.321309 117.121 0.417036C117.156 1.1008 117.286 3.78114 117.286 9.3196C117.286 14.8581 117.156 18.8034 117.121 19.6375C117.121 19.7333 117.197 19.8153 117.292 19.8153H120.41C120.506 19.8153 120.581 19.7401 120.581 19.6444V12.6974C120.581 12.6495 120.622 12.6085 120.663 12.6085H122.127C123.672 12.6085 124.725 13.1965 124.821 15.7948C124.916 18.4205 125.149 19.3914 125.245 19.6991C125.265 19.7675 125.333 19.8153 125.409 19.8153H128.698C128.814 19.8153 128.889 19.7059 128.862 19.5965V19.6102ZM122.598 9.13498H120.684C120.636 9.13498 120.602 9.1008 120.602 9.05293V3.79481C120.602 3.74695 120.643 3.71276 120.684 3.71276H122.598C124.089 3.71276 125.313 4.93669 125.313 6.42729C125.313 7.91789 124.089 9.14182 122.598 9.14182V9.13498Z" fill="black"></path><path d="M33.1417 20C38.557 20 39.1177 15.6239 39.1177 14.7009C39.1177 10.4957 36.8134 9.77778 34.5981 8.76581C32.0818 7.61709 30.9741 7.2 31.0562 5.53162C31.1246 4.17094 32.0203 3.48034 33.4425 3.48034C35.1656 3.48034 35.7605 5.03932 35.9451 5.56581C35.9724 5.64786 36.0682 5.68889 36.1434 5.64786C36.7246 5.3812 38.3656 4.64274 38.8784 4.38974C38.9468 4.35556 38.9741 4.28034 38.9468 4.21197C38.0169 1.7094 36.328 0 33.6955 0C31.063 0 27.8425 1.49744 27.7946 5.36752C27.7536 8.60855 29.2305 10.1744 32.2596 11.3436C34.5981 12.2462 35.9109 12.6427 35.8835 14.2838C35.8699 15.1111 35.316 16.6427 33.5177 16.6427C31.7194 16.6427 30.9878 15.3778 30.4271 14.1538C30.3929 14.0786 30.3109 14.0444 30.2357 14.0786C29.7023 14.3248 28.1434 15.0427 27.6647 15.2615C27.5964 15.2957 27.5622 15.3709 27.5895 15.4462C28.6288 18.2838 30.5434 19.8496 33.1485 19.9932L33.1417 20Z" fill="black"></path><path d="M19.9252 0H19.7543C16.7389 0 14.2842 2.29744 14.2842 5.34017V14.6667C14.2842 17.7026 16.7389 20 19.7543 20H19.9252C22.9406 20 25.3953 17.7026 25.3953 14.6667V5.34017C25.3953 2.29744 22.9406 0 19.9252 0ZM21.956 14.6667C21.956 15.788 21.0466 16.5333 19.9252 16.5333H19.7543C18.6329 16.5333 17.7235 15.788 17.7235 14.6667V5.34017C17.7235 4.2188 18.6329 3.46667 19.7543 3.46667H19.9252C21.0466 3.46667 21.956 4.21197 21.956 5.34017V14.6667Z" fill="black"></path></g><defs><clipPath id="clip0_709_19904"><rect width="176.67" height="20" fill="white"></rect></clipPath></defs></svg>