<svg xmlns="http://www.w3.org/2000/svg" width="37" height="321" fill="none" viewBox="0 0 37 321"><g clip-path="url(#a)"><path fill="#fff" d="M36.38 49.72c-1.872.049-12.776.31-17.836.31-5.06 0-15.95-.261-17.823-.31-.152 0-.278.111-.278.26v5.765a.26.26 0 0 0 .278.26c1.771-.05 11.676-.298 17.849-.298s16.04.261 17.81.298c.152 0 .278-.111.278-.26V49.98a.26.26 0 0 0-.278-.26ZM36.279.012c-2.302.634-5.68 1.032-7.88 1.106-4.327.124-5.946 1.23-7.287 3.454C19.215 2.236 15.698.137 12.131.137h-.519C5.427.137.442 5.08.442 11.157v9.876c0 .174.153.323.33.31 1.265-.061 6.223-.297 16.47-.297 10.245 0 17.544.236 19.088.298.177 0 .328-.137.328-.31v-5.666a.31.31 0 0 0-.316-.31H23.49a.166.166 0 0 1-.164-.162v-2.659c0-2.807 1.088-4.72 5.895-4.895 4.857-.174 6.653-.596 7.222-.77a.31.31 0 0 0 .215-.298V.311c0-.212-.202-.348-.404-.299h.025Zm-19.38 11.38v3.48c0 .086-.062.148-.151.148H7.021a.152.152 0 0 1-.152-.149v-3.479c0-2.708 2.264-4.932 5.022-4.932 2.757 0 5.022 2.224 5.022 4.933H16.9Zm13.308 101.762c-.152 0-.278.124-.265.273l.303 10.809c0 .087-.063.161-.152.161h-8.918c-.088 0-.164-.062-.151-.161.038-.957.24-5.951.303-7.181a.267.267 0 0 0-.265-.273h-5.845c-.151 0-.278.124-.265.273l.303 7.181c0 .087-.063.161-.151.161H7.07c-.088 0-.164-.074-.152-.161l.304-10.809a.267.267 0 0 0-.266-.273H.708a.257.257 0 0 0-.265.261v17.119a.432.432 0 0 0 .442.448c1.974-.062 9.842-.298 16.369-.298 6.527 0 16.685.248 18.936.298a.44.44 0 0 0 .456-.435v-17.381h-6.451l.012-.012Zm5.996 114.384h-6.008c-.152 0-.279.124-.266.273l.304 10.808c0 .087-.064.162-.152.162h-8.918c-.089 0-.165-.075-.152-.162.038-.944.24-5.95.303-7.18a.268.268 0 0 0-.265-.274h-5.844c-.152 0-.278.125-.266.274l.304 7.168a.166.166 0 0 1-.165.162H7.046c-.089 0-.165-.075-.152-.162l.304-10.808a.268.268 0 0 0-.266-.274H.708a.257.257 0 0 0-.265.261v17.12a.431.431 0 0 0 .442.447c1.974-.062 9.842-.298 16.369-.298 6.527 0 16.71.248 18.936.298a.428.428 0 0 0 .443-.435v-16.946a.436.436 0 0 0-.443-.434h.013ZM.443 26.574v17.12a.431.431 0 0 0 .442.447c1.974-.062 9.842-.298 16.369-.298 6.527 0 16.685.236 18.936.298.253 0 .456-.186.456-.435v-17.38h-6.451c-.152 0-.279.124-.266.273l.304 10.808c0 .087-.064.162-.152.162h-8.918a.166.166 0 0 1-.165-.162c.038-.969.24-5.938.304-7.168a.268.268 0 0 0-.266-.273h-5.844c-.152 0-.278.124-.265.273l.303 7.18c0 .088-.063.162-.152.162H7.046c-.089 0-.165-.074-.152-.161l.304-10.809a.268.268 0 0 0-.266-.273H.708a.265.265 0 0 0-.265.26v-.024ZM12.51 135.355h-.834c-6.186 0-11.208 4.944-11.208 11.02l-.025 9.764c0 .249.202.448.468.448 1.948-.062 9.677-.311 16.9-.311 7.223 0 16.305.224 18.43.286a.46.46 0 0 0 .468-.447s-.025-4.274-.025-5.69a.442.442 0 0 0-.468-.435c-1.632.062-7.3.285-12.32.285-.09 0-.153-.074-.153-.161v-3.752c0-6.075-5.034-11.02-11.207-11.02l-.026.013Zm.43 6.348c2.379 0 4.327 1.913 4.327 4.249v4.162a.152.152 0 0 1-.152.149H7.07c-.088 0-.164-.074-.164-.149v-4.162c0-2.336 1.948-4.249 4.326-4.249h1.707ZM.43 301.048v6.274c0 .174.165.31.342.285 1.024-.149 4.326-.571 9.803-.571h15.698c2.087 0 3.871 1.528 4.073 3.466.127 1.106-.24 2.149-.999 2.969-.734.795-1.682 1.268-2.91 1.268-.847 0-1.694-.15-2.137-.236a.269.269 0 0 0-.329.26v5.827a.27.27 0 0 0 .19.261c.253.074.81.161 1.96.161 6.743 0 10.373-4.211 10.639-9.591.139-2.77-.86-5.441-2.846-7.479a10.384 10.384 0 0 0-7.489-3.143H.708a.257.257 0 0 0-.265.261l-.013-.012Zm12.08-100.246h-.834c-6.186 0-11.208 4.945-11.208 11.02l-.025 9.765c0 .248.202.447.468.447 1.948-.062 9.677-.311 16.9-.311 7.223 0 16.305.224 18.43.286a.46.46 0 0 0 .468-.447s-.025-4.274-.025-5.69a.443.443 0 0 0-.468-.435c-1.632.062-7.3.286-12.32.298-.09 0-.153-.074-.153-.161v-3.752c0-6.075-5.034-11.02-11.207-11.02h-.026Zm.43 6.349c2.379 0 4.327 1.913 4.327 4.248v4.162a.152.152 0 0 1-.152.149H7.07c-.088 0-.164-.062-.164-.149v-4.162c0-2.335 1.948-4.248 4.326-4.248h1.707Zm23.25-31.507c-2.15.063-11.384.299-18.405.299-7.02 0-14.939-.236-16.912-.299-.253 0-.456.187-.456.435v5.69c0 .249.215.447.468.435l13.928-.298c.088 0 .164.074.164.161l-.05 8.188c0 .086-.076.161-.165.149l-13.851-.299a.447.447 0 0 0-.456.435v5.703a.46.46 0 0 0 .468.447c1.847-.062 8.906-.298 16.875-.298 7.97 0 16.381.236 18.405.298.253 0 .455-.186.455-.435v-5.702a.431.431 0 0 0-.455-.435l-14.699.298a.166.166 0 0 1-.164-.161v-8.188c0-.087.076-.161.164-.149l14.7.298a.447.447 0 0 0 .454-.434v-5.703a.46.46 0 0 0-.468-.447v.012Zm.494-108.358v-5.963c0-.212-.203-.348-.405-.298-2.302.633-5.68 1.03-7.88 1.105-4.327.124-5.946 1.23-7.287 3.454-1.897-2.336-5.414-4.435-8.981-4.435h-.519c-6.185 0-11.17 4.944-11.17 11.02v9.876c0 .174.153.323.33.31 1.265-.074 6.223-.297 16.47-.297 10.245 0 17.544.236 19.088.298.177 0 .328-.137.328-.31V76.38a.31.31 0 0 0-.316-.31H23.49c-.088 0-.164-.075-.164-.15v-2.658c0-2.808 1.088-4.721 5.895-4.895 4.857-.174 6.653-.597 7.222-.77a.31.31 0 0 0 .215-.299l.026-.012Zm-19.771 5.118v3.479c0 .087-.064.15-.152.15H7.033a.152.152 0 0 1-.152-.15v-3.479c0-2.708 2.265-4.932 5.022-4.932 2.758 0 5.022 2.224 5.022 4.932h-.012Zm19.366 14.461c-2.302.634-5.68 1.032-7.88 1.106-4.327.124-5.946 1.23-7.287 3.454-1.897-2.336-5.414-4.435-8.981-4.435h-.519c-6.185 0-11.17 4.944-11.17 11.02v9.876c0 .174.153.323.33.311 1.265-.062 6.223-.298 16.47-.298 10.245 0 17.544.236 19.088.298.177 0 .328-.137.328-.311v-5.665a.31.31 0 0 0-.316-.311H23.49c-.088 0-.164-.074-.164-.149v-2.658c0-2.808 1.088-4.721 5.895-4.895 4.857-.174 6.653-.596 7.222-.77a.31.31 0 0 0 .215-.299v-5.975c0-.212-.202-.348-.404-.299h.025Zm-19.38 11.38v3.479a.144.144 0 0 1-.151.149H7.021a.152.152 0 0 1-.152-.149v-3.478c0-2.709 2.264-4.933 5.022-4.933 2.757 0 5.022 2.224 5.022 4.933H16.9ZM37 260.783c0-9.839-8.096-10.858-9.803-10.858-7.78 0-9.108 4.187-10.98 8.212-2.125 4.572-2.897 6.584-5.983 6.435-2.518-.124-3.795-1.751-3.795-4.336 0-3.13 2.884-4.211 3.858-4.547.152-.049.227-.223.152-.36-.494-1.056-1.86-4.038-2.328-4.969a.258.258 0 0 0-.329-.125C3.162 251.925 0 254.994 0 259.777c0 4.783 2.77 10.634 9.93 10.721 5.996.075 8.893-2.609 11.056-8.112 1.67-4.249 2.403-6.634 5.439-6.585 1.53.025 4.364 1.031 4.364 4.299 0 3.267-2.34 4.597-4.604 5.615-.14.062-.203.211-.14.348.456.969 1.784 3.802 2.189 4.671a.272.272 0 0 0 .341.137c5.25-1.888 8.147-5.367 8.412-10.1l.013.012ZM0 284.798v.31c0 5.479 4.25 9.939 9.88 9.939h17.253c5.617 0 9.867-4.46 9.867-9.939v-.31c0-5.479-4.25-9.939-9.867-9.939H9.88c-5.629 0-9.879 4.46-9.879 9.939Zm27.133-3.69c2.075 0 3.454 1.652 3.454 3.69v.31c0 2.038-1.38 3.69-3.454 3.69H9.88c-2.074 0-3.466-1.652-3.466-3.69v-.31c0-2.038 1.38-3.69 3.466-3.69h17.254Z"></path></g><defs><clipPath id="a"><path fill="#fff" d="M0 321V0h37v321z"></path></clipPath></defs></svg>