<svg xmlns="http://www.w3.org/2000/svg" width="22" height="22" viewBox="0 0 22 22" fill="none"><path d="M16 1.22852H6C3.23858 1.22852 1 3.46709 1 6.22852V16.2285C1 18.9899 3.23858 21.2285 6 21.2285H16C18.7614 21.2285 21 18.9899 21 16.2285V6.22852C21 3.46709 18.7614 1.22852 16 1.22852Z" stroke="black" stroke-width="0.5" stroke-linecap="round" stroke-linejoin="round"></path><path d="M14.9997 10.5988C15.1231 11.4311 14.981 12.281 14.5935 13.0278C14.206 13.7746 13.5929 14.3802 12.8413 14.7585C12.0898 15.1368 11.2382 15.2684 10.4075 15.1347C9.57683 15.0011 8.80947 14.6089 8.21455 14.014C7.61962 13.4191 7.22744 12.6517 7.09377 11.821C6.96011 10.9904 7.09177 10.1387 7.47003 9.38719C7.84829 8.63567 8.45389 8.02256 9.20069 7.63506C9.94749 7.24756 10.7975 7.10541 11.6297 7.22882C12.4786 7.3547 13.2646 7.75028 13.8714 8.35712C14.4782 8.96397 14.8738 9.74989 14.9997 10.5988Z" fill="black"></path><path d="M16.3447 7C16.897 7 17.3447 6.55228 17.3447 6C17.3447 5.44772 16.897 5 16.3447 5C15.7924 5 15.3447 5.44772 15.3447 6C15.3447 6.55228 15.7924 7 16.3447 7Z" fill="black"></path></svg>