<svg xmlns="http://www.w3.org/2000/svg" width="166" height="99" viewBox="0 0 166 99" fill="none"><g clip-path="url(#clip0_1300_518)"><path d="M68.1654 24.8456L68.4096 25.3572C68.4353 25.4148 68.5059 25.434 68.5638 25.4084L77.8859 20.7526C77.6611 20.5799 77.4491 20.4008 77.2499 20.209L68.2297 24.6857C68.1654 24.7177 68.1333 24.7881 68.1654 24.8392V24.8456Z" fill="#C6A051"></path><path d="M77.3271 29.8467C77.3785 29.8723 77.4556 29.8467 77.4813 29.7827L80.9056 22.1403C80.6422 22.0827 80.3788 22.006 80.1282 21.9229L76.7489 29.4566C76.7232 29.5205 76.7489 29.5909 76.8002 29.6165L77.3206 29.8467H77.3271Z" fill="#C6A051"></path><path d="M74.0632 30.9533C74.0632 30.9533 74.121 30.9724 74.1531 30.9533C74.1788 30.9469 74.2045 30.9213 74.2174 30.8893L79.325 21.5969C79.0873 21.4881 78.856 21.373 78.6375 21.2451L73.5235 30.5248C73.4914 30.5887 73.5107 30.6527 73.5621 30.6846L74.0696 30.9469L74.0632 30.9533Z" fill="#C6A051"></path><path d="M78.6439 11.7223C78.8623 11.5944 79.0936 11.4793 79.3313 11.3706L74.2623 2.07816C74.2366 2.03339 74.1981 2.00781 74.1531 2.00781C74.1338 2.00781 74.121 2.00781 74.1017 2.027L73.5941 2.28281C73.5363 2.30839 73.517 2.37874 73.5492 2.4427L78.6439 11.7223Z" fill="#C6A051"></path><path d="M66.5401 20.7725C66.5401 20.7725 66.5979 20.7852 66.63 20.7725L75.798 17.9265C75.7209 17.6771 75.6631 17.4277 75.6245 17.1719L66.3859 20.0306C66.3216 20.0498 66.2831 20.1137 66.3023 20.1713L66.4822 20.7085C66.4822 20.7085 66.5079 20.7597 66.5401 20.7725Z" fill="#C6A051"></path><path d="M66.3987 12.9246L75.6245 15.7961C75.663 15.5403 75.7209 15.2909 75.798 15.0414L66.6557 12.1763C66.6557 12.1763 66.6236 12.1699 66.6107 12.1699C66.5593 12.1699 66.5143 12.1955 66.5015 12.2467L66.3152 12.7839C66.2895 12.8414 66.328 12.9054 66.3923 12.9246H66.3987Z" fill="#C6A051"></path><path d="M69.7782 10.7247C69.7782 10.7247 69.7461 10.7119 69.7268 10.7119C69.6818 10.7119 69.6369 10.7375 69.6176 10.7823L69.4056 11.3067C69.3799 11.3642 69.4184 11.4346 69.4762 11.4602L76.1707 14.159C76.2992 13.9224 76.447 13.6921 76.6076 13.4811L69.7718 10.7247H69.7782Z" fill="#C6A051"></path><path d="M77.2565 12.7523C77.4557 12.5605 77.6677 12.3814 77.899 12.2087L68.5897 7.54013C68.5897 7.54013 68.5511 7.52734 68.5318 7.52734C68.4933 7.52734 68.4547 7.54653 68.429 7.5849L68.1849 8.10292C68.1849 8.10292 68.1721 8.15409 68.1849 8.19246C68.1913 8.21804 68.217 8.24362 68.2492 8.25641L77.2629 12.7651L77.2565 12.7523Z" fill="#C6A051"></path><path d="M80.1474 11.0513C80.398 10.9682 80.6614 10.8914 80.9248 10.8339L77.5198 3.19784C77.5005 3.15307 77.4555 3.12109 77.4105 3.12109C77.3977 3.12109 77.3784 3.12109 77.3656 3.13388L76.8452 3.36412C76.7938 3.3897 76.7681 3.46005 76.7938 3.524L80.1539 11.0577L80.1474 11.0513Z" fill="#C6A051"></path><path d="M78.6957 32.9678C78.7535 32.9934 78.8178 32.9614 78.8435 32.8974L82.5634 22.3643C82.2935 22.3515 82.0301 22.3323 81.7667 22.2939L78.0982 32.616C78.0725 32.68 78.0982 32.7567 78.1625 32.7695L78.6957 32.9742V32.9678Z" fill="#C6A051"></path><path d="M96.5368 11.4924C96.601 11.4668 96.6332 11.3965 96.6075 11.3389L96.3954 10.8145C96.3762 10.7697 96.3376 10.7441 96.2862 10.7441C96.2669 10.7441 96.2541 10.7441 96.2348 10.7569L89.3926 13.5005C89.5532 13.718 89.701 13.9418 89.8295 14.1784L96.5368 11.4924Z" fill="#C6A051"></path><path d="M69.3927 21.6423L69.6047 22.1667C69.6304 22.2242 69.701 22.2498 69.7653 22.2242L76.6075 19.4806C76.4405 19.2632 76.2992 19.0394 76.1707 18.8027L69.4633 21.4952C69.3991 21.5208 69.367 21.5847 69.3927 21.6487V21.6423Z" fill="#C6A051"></path><path d="M90.3756 15.8091L99.6143 12.9568C99.6785 12.9376 99.7171 12.8737 99.6914 12.8161L99.505 12.2789C99.4986 12.2277 99.4536 12.2021 99.4023 12.2021C99.3894 12.2021 99.3701 12.2021 99.3573 12.2085L90.2021 15.0545C90.2792 15.2975 90.3371 15.5533 90.3756 15.8091Z" fill="#C6A051"></path><path d="M99.6143 20.0562L90.3756 17.1719C90.3371 17.4277 90.2792 17.6835 90.2021 17.9329L99.3701 20.8044C99.3701 20.8044 99.4344 20.8172 99.4601 20.8044C99.4922 20.7916 99.5179 20.7661 99.5179 20.7405L99.7042 20.2033C99.7235 20.1457 99.6849 20.0818 99.6207 20.0562H99.6143Z" fill="#C6A051"></path><path d="M88.1074 20.7589L97.4167 25.4339C97.481 25.4659 97.5516 25.4467 97.5709 25.3891L97.8151 24.8775C97.8472 24.8199 97.8151 24.756 97.7572 24.724L88.7435 20.2217C88.5443 20.4071 88.3323 20.5926 88.1074 20.7653V20.7589Z" fill="#C6A051"></path><path d="M88.6536 29.8468L89.174 29.6166C89.2318 29.591 89.2575 29.5206 89.2254 29.4567L85.8653 21.9102C85.6147 21.9933 85.3577 22.07 85.0879 22.1276L88.493 29.7764C88.5187 29.8404 88.5893 29.8724 88.6471 29.8468H88.6536Z" fill="#C6A051"></path><path d="M83.4434 22.358L87.1311 32.8911C87.1568 32.9551 87.2211 32.9871 87.2789 32.9615L87.8121 32.7568C87.8764 32.744 87.9021 32.6737 87.8764 32.6033L84.24 22.2812C83.9766 22.3132 83.7132 22.3388 83.4498 22.3516L83.4434 22.358Z" fill="#C6A051"></path><path d="M91.8337 30.9665C91.8337 30.9665 91.898 30.9793 91.9172 30.9665L92.4248 30.7107C92.4762 30.6787 92.4955 30.6083 92.4633 30.5508L87.3686 21.252C87.1502 21.3799 86.9189 21.5014 86.6812 21.6101L91.763 30.9153C91.763 30.9153 91.8016 30.9665 91.8273 30.9793L91.8337 30.9665Z" fill="#C6A051"></path><path d="M96.2285 22.2498C96.2927 22.2754 96.3634 22.2498 96.3891 22.1923L96.6011 21.6615C96.6268 21.6039 96.5947 21.5399 96.5304 21.508L89.8231 18.8027C89.6946 19.0394 89.5468 19.2696 89.3862 19.4806L96.2285 22.2434V22.2498Z" fill="#C6A051"></path><path d="M88.7499 12.7649L97.7765 8.2818C97.7765 8.2818 97.8279 8.24983 97.8408 8.21785C97.86 8.18587 97.8536 8.1475 97.8408 8.12832L97.5966 7.61029C97.5774 7.57192 97.5388 7.55273 97.4938 7.55273C97.4746 7.55273 97.4553 7.55273 97.4296 7.56552L88.1074 12.2149C88.3387 12.3812 88.5507 12.5667 88.7499 12.7585V12.7649Z" fill="#C6A051"></path><path d="M87.9021 0.370835C87.9021 0.370835 87.9149 0.306881 87.9021 0.2813C87.8892 0.249323 87.8635 0.223742 87.8442 0.217346L87.311 0.0126953C87.311 0.0126953 87.2917 0.0126953 87.2789 0.0126953C87.2275 0.0126953 87.1825 0.0446721 87.1632 0.0958348L83.4434 10.6162C83.7132 10.629 83.9766 10.6546 84.24 10.6865L87.9021 0.37723V0.370835Z" fill="#C6A051"></path><path d="M81.7792 10.6866C82.0426 10.6483 82.306 10.6291 82.5759 10.6163L78.8817 0.0831395C78.8624 0.0319767 78.8174 0 78.7725 0C78.7596 0 78.7532 0 78.7404 0L78.2071 0.198256C78.2071 0.198256 78.1557 0.230233 78.1493 0.262209C78.1364 0.287791 78.1364 0.319767 78.1493 0.351744L81.7856 10.6802L81.7792 10.6866Z" fill="#C6A051"></path><path d="M85.8652 11.0571L89.2446 3.53616C89.2703 3.47221 89.2446 3.40186 89.1932 3.37628L88.6728 3.14604C88.6728 3.14604 88.6471 3.13965 88.6278 3.13965C88.5828 3.13965 88.5379 3.16523 88.5186 3.21639L85.0942 10.8396C85.3576 10.8972 85.6211 10.974 85.8716 11.0571H85.8652Z" fill="#C6A051"></path><path d="M87.3687 11.7355L92.4827 2.46862C92.5148 2.40467 92.502 2.33432 92.4377 2.30874L91.9302 2.04653C91.9302 2.04653 91.898 2.02734 91.8788 2.02734C91.8402 2.02734 91.7952 2.05293 91.7695 2.09769L86.6748 11.3709C86.9125 11.4797 87.1438 11.5948 87.3622 11.7227L87.3687 11.7355Z" fill="#C6A051"></path><path d="M83.3984 19.4482C83.3984 19.4929 83.4306 19.5249 83.4755 19.5249C83.6811 19.5249 84.2465 19.5249 84.4521 19.5249C84.4971 19.5249 84.5292 19.4865 84.5292 19.4482C84.5163 19.1795 84.4842 18.2586 84.4778 17.4272C84.4778 17.3825 84.5099 17.3505 84.5549 17.3505H85.1524C86.1996 17.3505 87.0476 16.5063 87.0476 15.4638V15.3232C87.0476 14.2871 86.1996 13.4365 85.1524 13.4365H83.4755C83.4306 13.4365 83.3984 13.4685 83.3984 13.5133C83.4113 13.8394 83.4498 15.1441 83.4498 16.3528C83.4498 17.5615 83.4113 19.0964 83.3984 19.4482ZM84.4778 14.5941C84.4778 14.5493 84.5099 14.5173 84.5549 14.5173H85.223C85.6278 14.5173 85.9554 14.8435 85.9554 15.2464V15.5342C85.9554 15.9371 85.6278 16.2633 85.223 16.2633H84.5549C84.5099 16.2633 84.4778 16.2313 84.4778 16.1865V14.5941Z" fill="#C6A051"></path><path d="M80.0256 17.3888H79.0233C79.0233 17.3888 78.9848 17.4016 78.9783 17.4208C78.9655 17.4656 78.9526 17.5551 78.9526 17.7534C78.9526 18.8854 79.6786 19.4993 80.6038 19.5441C81.0792 19.5697 81.5418 19.397 81.8887 19.0644C82.2356 18.7319 82.4284 18.2842 82.4284 17.8045V13.4813C82.4284 13.4813 82.4091 13.4365 82.3834 13.4365H81.3041C81.3041 13.4365 81.2527 13.4621 81.2527 13.4941C81.2784 13.6668 81.349 14.2232 81.349 15.1441V17.7854C81.349 18.1371 81.0856 18.4377 80.7515 18.4697C80.5588 18.4888 80.3789 18.4313 80.2376 18.3034C80.0962 18.1819 80.0191 18.022 80.0191 17.8173C80.0191 17.6766 80.0448 17.5359 80.0577 17.4592C80.0577 17.4336 80.0384 17.4016 80.0127 17.4016L80.0256 17.3888Z" fill="#C6A051"></path><path d="M118.355 44.4925L125.036 50.8239H125.981V43.1367H124.934V49.2635L118.47 43.1367H117.314V50.8239H118.355V44.4925Z" fill="black"></path><path d="M100.032 50.8235H101.246L96.8258 43.1299H95.6244L91.1914 50.8235H92.38L93.5171 48.8409H98.9074L100.032 50.8235ZM94.0568 47.888L96.2155 44.1084L98.3613 47.888H94.0568Z" fill="black"></path><path d="M108.769 51.0792C111.005 51.0792 112.65 50.1774 113.318 48.9687V46.8071H108.654V47.7728H112.245V48.6489C111.667 49.6786 110.382 50.1007 108.808 50.1007C106.379 50.1007 104.863 49.0454 104.863 46.9861C104.863 44.9268 106.373 43.8588 108.808 43.8588C110.189 43.8588 111.211 44.2425 112.014 45.1187L112.907 44.46C112.091 43.5326 110.723 42.8867 108.769 42.8867C105.628 42.8867 103.765 44.4728 103.765 46.9925C103.765 49.5123 105.628 51.0856 108.769 51.0856V51.0792Z" fill="black"></path><path d="M32.4124 51.0797C34.4041 51.0797 35.8368 50.3059 36.5885 49.1739L35.5926 48.675C34.9695 49.6535 33.8066 50.0884 32.4381 50.0884C30.151 50.0884 28.6347 49.0332 28.6347 46.9867C28.6347 44.9402 30.1574 43.8721 32.4381 43.8721C33.8066 43.8721 34.9566 44.3326 35.5798 45.2983L36.5756 44.7995C35.8368 43.6931 34.4041 42.8809 32.451 42.8809C29.3993 42.8809 27.5361 44.4797 27.5361 46.9867C27.5361 49.4936 29.3993 51.0797 32.4124 51.0797Z" fill="black"></path><path d="M67.0414 44.6332L71.0889 49.2635H71.166L75.2135 44.6332V50.8239H76.2864V43.1367H75.1236L71.1531 47.7222L67.1699 43.1367H65.9941V50.8239H67.0414V44.6332Z" fill="black"></path><path d="M41.4455 47.4344H47.9729V50.8239H49.0458V43.1367H47.9729V46.4175H41.4455V43.1367H40.3726V50.8239H41.4455V47.4344Z" fill="black"></path><path d="M138.458 49.8646H131.654V47.4088H137.301V46.4431H131.654V44.1024H138.348V43.1367H130.581V50.8239H138.458V49.8646Z" fill="black"></path><path d="M56.9223 43.1367L52.4893 50.8303H53.6778L54.815 48.8478H60.2053L61.3296 50.8303H62.5438L58.1237 43.1367H56.9223ZM55.3482 47.8949L57.5069 44.1152L59.6527 47.8949H55.3482Z" fill="black"></path><path d="M81.9591 48.0675H86.3022C88.1911 48.0675 89.4567 47.1658 89.4567 45.6053C89.4567 44.0449 88.1911 43.1367 86.3022 43.1367H80.8862V50.8303H81.9591V48.0739V48.0675ZM81.9591 44.0768H86.2251C87.5165 44.0768 88.3581 44.5245 88.3581 45.6053C88.3581 46.6861 87.5165 47.1338 86.2251 47.1338H81.9591V44.0832V44.0768Z" fill="black"></path><path d="M140.288 76.7893C140.263 75.8428 140.128 70.33 140.128 67.7719C140.128 65.2137 140.263 59.7073 140.288 58.7608C140.288 58.6841 140.231 58.6201 140.153 58.6201H137.172C137.095 58.6201 137.031 58.6841 137.038 58.7608C137.063 59.6562 137.192 64.6637 137.192 67.7846C137.192 70.9056 137.057 75.8939 137.038 76.7893C137.038 76.866 137.095 76.93 137.172 76.93H140.153C140.231 76.93 140.295 76.866 140.288 76.7893Z" fill="black"></path><path d="M165.993 76.7381C165.666 75.5742 165.46 73.8666 165.422 72.7538C165.357 70.5666 164.786 69.748 163.636 69.0701C164.843 68.1108 165.929 66.3329 165.929 64.5294V64.2672C165.929 61.1399 163.372 58.6201 160.23 58.6201H155.123C155.033 58.6201 154.956 58.6969 154.962 58.7864C154.994 59.4259 155.116 61.9329 155.116 67.1131C155.116 72.2934 154.994 75.9835 154.962 76.7637C154.962 76.8533 155.033 76.93 155.123 76.93H158.053C158.142 76.93 158.213 76.8596 158.213 76.7701V70.2724C158.213 70.2277 158.252 70.1893 158.297 70.1893H159.672C161.124 70.1893 162.113 70.7393 162.203 73.1695C162.293 75.6253 162.511 76.5335 162.601 76.8213C162.62 76.8852 162.685 76.93 162.755 76.93H165.839C165.948 76.93 166.019 76.8277 165.993 76.7253V76.7381ZM160.108 66.9405H158.31C158.265 66.9405 158.232 66.9085 158.232 66.8637V61.9457C158.232 61.9009 158.271 61.869 158.31 61.869H160.108C161.509 61.869 162.659 63.0137 162.659 64.4079C162.659 65.8021 161.509 66.9469 160.108 66.9469V66.9405Z" fill="black"></path><path d="M107.485 73.6679C107.485 73.5912 107.42 73.5272 107.343 73.5336L101.754 73.6871C101.709 73.6871 101.67 73.6551 101.67 73.6104V69.1017C101.67 69.0569 101.702 69.0185 101.754 69.0249C102.248 69.0441 104.831 69.1464 105.467 69.1784C105.544 69.1784 105.609 69.1208 105.609 69.0441V66.0894C105.609 66.0127 105.544 65.9487 105.467 65.9551L101.754 66.1086C101.709 66.1086 101.67 66.0767 101.67 66.0319V61.9708C101.67 61.9261 101.709 61.8877 101.754 61.8941L107.343 62.0476C107.42 62.0476 107.485 61.99 107.485 61.9133V58.786C107.485 58.7092 107.427 58.6517 107.35 58.6517H98.4964C98.3679 58.6453 98.2651 58.7476 98.2651 58.8755C98.2973 59.8732 98.4193 63.8511 98.4193 67.1511C98.4193 70.4511 98.2908 75.5865 98.2651 76.7249C98.2651 76.8528 98.3615 76.9551 98.49 76.9551H107.478V73.6935L107.485 73.6679Z" fill="black"></path><path d="M48.3326 76.6994V73.6616C48.3326 73.5849 48.2683 73.5209 48.1912 73.5273L42.6018 73.6808C42.5568 73.6808 42.5183 73.6488 42.5183 73.6041V69.0954C42.5183 69.0506 42.5568 69.0122 42.6018 69.0186C43.0901 69.0378 45.6792 69.1401 46.3152 69.1721C46.3923 69.1721 46.4566 69.1145 46.4566 69.0378V66.0831C46.4566 66.0064 46.3923 65.9424 46.3152 65.9488L42.6082 66.1023C42.5632 66.1023 42.5247 66.064 42.5247 66.0192V61.9581C42.5247 61.9134 42.5632 61.875 42.6082 61.8814L48.1977 62.0349C48.2747 62.0349 48.339 61.9773 48.339 61.9006V58.7733C48.339 58.6965 48.2812 58.639 48.2041 58.639H39.3509C39.2224 58.6326 39.1196 58.7349 39.1196 58.8628C39.1518 59.8605 39.2738 63.8384 39.2738 67.1384C39.2738 70.4384 39.1453 75.5866 39.1196 76.7122C39.1196 76.8401 39.216 76.9361 39.3445 76.9361H48.1077C48.2362 76.9361 48.3326 76.8337 48.3326 76.7122V76.6994Z" fill="black"></path><path d="M152.258 58.6194H143.405C143.276 58.613 143.173 58.7154 143.173 58.8433C143.205 59.8409 143.328 63.8188 143.328 67.1188C143.328 70.4188 143.205 75.5543 143.173 76.6927C143.173 76.8206 143.27 76.9229 143.398 76.9229H152.386V73.6613C152.386 73.5845 152.322 73.5206 152.245 73.527L146.655 73.6805C146.611 73.6805 146.572 73.6485 146.572 73.6037V69.095C146.572 69.0502 146.611 69.0119 146.655 69.0119C147.157 69.0311 149.726 69.1334 150.363 69.1654C150.44 69.1654 150.504 69.1078 150.504 69.0311V66.0764C150.504 65.9997 150.44 65.9357 150.363 65.9421L146.649 66.0956C146.604 66.0956 146.566 66.0636 146.566 66.0188V61.9578C146.566 61.913 146.604 61.8747 146.649 61.8811L152.239 62.0345C152.316 62.0345 152.38 61.977 152.38 61.9002V58.7729C152.38 58.6962 152.316 58.6386 152.245 58.6386L152.258 58.6194Z" fill="black"></path><path d="M96.0036 64.7213V64.2992C96.0036 61.1719 93.4466 58.6329 90.305 58.6329L85.2552 58.6201C85.1267 58.6201 85.0239 58.7224 85.0239 58.8567C85.056 59.8416 85.1845 63.7492 85.1845 67.4009C85.1845 71.0527 85.0689 75.6445 85.0368 76.7189C85.0368 76.8469 85.1396 76.9556 85.2681 76.9556C85.2681 76.9556 87.4781 76.9428 88.2106 76.9428C88.339 76.9428 88.4418 76.8341 88.4354 76.7062C88.4033 75.8812 88.2876 73.016 88.2876 70.4771C88.2876 70.4323 88.3262 70.4003 88.3712 70.4003H90.3114C93.4531 70.4003 96.0101 67.855 96.0101 64.7341L96.0036 64.7213ZM92.7207 64.9387C92.7207 66.141 91.7313 67.1259 90.5234 67.1259H88.3712C88.3262 67.1259 88.2941 67.0876 88.2941 67.0492V61.9713C88.2941 61.9265 88.3326 61.8881 88.3712 61.8881H90.5234C91.7313 61.8881 92.7207 62.873 92.7207 64.0753V64.9323V64.9387Z" fill="black"></path><path d="M10.3181 58.6133C9.76554 58.6133 7.6968 58.6133 7.07361 58.6133C6.98367 58.6133 6.913 58.6964 6.92585 58.786C7.00294 59.304 7.22138 60.9732 7.22138 63.7423V71.679C7.22138 72.7342 6.43115 73.636 5.4289 73.7383C4.85711 73.8022 4.31744 73.6168 3.89341 73.233C3.48224 72.8621 3.2381 72.3825 3.2381 71.7621C3.2381 71.3336 3.31519 70.9051 3.36017 70.6813C3.37944 70.5982 3.31519 70.515 3.22525 70.515H0.21209C0.147844 70.515 0.0964467 70.5534 0.0771727 70.611C0.0386249 70.7389 -0.00634766 71.0203 -0.00634766 71.6022C-0.00634766 75.011 2.17161 76.8464 4.95348 76.9807C6.38618 77.0511 7.76747 76.5458 8.82112 75.5418C9.86833 74.5441 10.4466 73.1947 10.4466 71.7557V58.754C10.4466 58.6772 10.3887 58.6197 10.3116 58.6197L10.3181 58.6133Z" fill="black"></path><path d="M62.1584 64.7213V64.2992C62.1584 61.1719 59.6014 58.6329 56.4598 58.6329L51.41 58.6201C51.2815 58.6201 51.1787 58.7224 51.1787 58.8567C51.2108 59.8416 51.3393 63.7492 51.3393 67.4009C51.3393 71.0527 51.2237 75.6445 51.1916 76.7189C51.1916 76.8469 51.2944 76.9556 51.4228 76.9556C51.4228 76.9556 53.6329 76.9428 54.3653 76.9428C54.4938 76.9428 54.5966 76.8341 54.5902 76.7062C54.5581 75.8812 54.4424 73.016 54.436 70.4771C54.436 70.4323 54.4746 70.4003 54.5195 70.4003H56.4598C59.6014 70.4003 62.1584 67.855 62.1584 64.7341V64.7213ZM58.8754 64.9387C58.8754 66.141 57.886 67.1259 56.6782 67.1259H54.526C54.481 67.1259 54.4489 67.0876 54.4489 67.0492V61.9713C54.4489 61.9265 54.481 61.8881 54.526 61.8881H56.6782C57.886 61.8881 58.8754 62.873 58.8754 64.0753V64.9323V64.9387Z" fill="black"></path><path d="M75.1685 76.6935C75.1364 75.6063 75.0143 70.9377 75.0143 67.3882C75.0143 63.8388 75.1364 59.8353 75.1685 58.8377C75.1685 58.7097 75.0721 58.6074 74.9436 58.6074H72.0012C71.8727 58.6074 71.7699 58.7161 71.7763 58.8441L71.9305 65.8853C71.9305 65.9301 71.8919 65.9685 71.847 65.9685L67.6131 65.9429C67.5682 65.9429 67.5296 65.9045 67.536 65.8597L67.6902 58.8568C67.6902 58.7289 67.5874 58.6266 67.4654 58.6266H64.5164C64.388 58.6266 64.2852 58.7353 64.2852 58.8632C64.3173 59.797 64.4394 63.3656 64.4394 67.3946C64.4394 71.4237 64.3173 75.6766 64.2852 76.6999C64.2852 76.8278 64.3815 76.9301 64.51 76.9301H67.4589C67.5874 76.9301 67.6902 76.8278 67.6838 76.6999L67.5296 69.2685C67.5296 69.2237 67.5682 69.1853 67.6131 69.1853H71.847C71.8919 69.1853 71.9305 69.2237 71.9241 69.2685L71.7699 76.6999C71.7699 76.8278 71.8727 76.9301 71.9947 76.9301H74.9436C75.0721 76.9301 75.1749 76.8214 75.1749 76.6935H75.1685Z" fill="black"></path><path d="M131.204 76.9428H134.288C134.397 76.9428 134.468 76.8405 134.442 76.7381C134.114 75.5742 133.909 73.8666 133.87 72.7538C133.806 70.5666 133.234 69.748 132.084 69.0701C133.292 68.1108 134.378 66.3329 134.378 64.5294V64.2672C134.378 61.1399 131.821 58.6201 128.679 58.6201H123.572C123.482 58.6201 123.405 58.6969 123.411 58.7864C123.45 59.4259 123.565 61.9329 123.565 67.1131C123.565 72.2934 123.443 75.9835 123.411 76.7637C123.411 76.8532 123.482 76.93 123.572 76.93H126.501C126.591 76.93 126.662 76.8596 126.662 76.7701V70.2724C126.662 70.2277 126.7 70.1893 126.739 70.1893H128.114C129.566 70.1893 130.555 70.7393 130.645 73.1695C130.735 75.6253 130.954 76.5335 131.043 76.8213C131.063 76.8852 131.127 76.93 131.198 76.93L131.204 76.9428ZM128.557 66.9469H126.758C126.713 66.9469 126.681 66.9149 126.681 66.8701V61.9521C126.681 61.9073 126.72 61.8753 126.758 61.8753H128.557C129.958 61.8753 131.108 63.0201 131.108 64.4143C131.108 65.8085 129.958 66.9533 128.557 66.9533V66.9469Z" fill="black"></path><path d="M121.079 76.7381C120.751 75.5742 120.546 73.8666 120.507 72.7538C120.443 70.5666 119.871 69.748 118.721 69.0701C119.929 68.1108 121.015 66.3329 121.015 64.5294V64.2672C121.015 61.1399 118.458 58.6201 115.316 58.6201H110.208C110.118 58.6201 110.041 58.6969 110.048 58.7864C110.08 59.4259 110.202 61.9329 110.202 67.1131C110.202 72.2934 110.08 75.9835 110.048 76.7637C110.048 76.8533 110.118 76.93 110.208 76.93H113.138C113.228 76.93 113.299 76.8596 113.299 76.7701V70.2724C113.299 70.2277 113.337 70.1893 113.376 70.1893H114.751C116.203 70.1893 117.192 70.7393 117.282 73.1695C117.372 75.6253 117.59 76.5335 117.68 76.8213C117.699 76.8852 117.764 76.93 117.834 76.93H120.925C121.034 76.93 121.105 76.8277 121.079 76.7253V76.7381ZM115.194 66.9405H113.395C113.35 66.9405 113.318 66.9085 113.318 66.8637V61.9457C113.318 61.9009 113.356 61.869 113.395 61.869H115.194C116.594 61.869 117.744 63.0137 117.744 64.4079C117.744 65.8021 116.594 66.9469 115.194 66.9469V66.9405Z" fill="black"></path><path d="M31.1402 77.1019C36.2286 77.1019 36.7554 73.0089 36.7554 72.1455C36.7554 68.2124 34.5903 67.5409 32.5087 66.5943C30.1444 65.5199 29.1036 65.1298 29.1807 63.5693C29.245 62.2967 30.0866 61.6507 31.4229 61.6507C33.0419 61.6507 33.6009 63.1089 33.7743 63.6013C33.8 63.6781 33.89 63.7164 33.9607 63.6781C34.5068 63.4286 36.0487 62.738 36.5305 62.5013C36.5948 62.4693 36.6205 62.399 36.5948 62.335C35.721 59.9943 34.1341 58.3955 31.6606 58.3955C29.1871 58.3955 26.1611 59.7961 26.1162 63.4159C26.0776 66.4473 27.4653 67.9118 30.3115 69.0054C32.5087 69.8496 33.7422 70.2205 33.7165 71.7554C33.7037 72.5292 33.1833 73.9618 31.4936 73.9618C29.8039 73.9618 29.1165 72.7787 28.5897 71.6339C28.5575 71.5635 28.4804 71.5316 28.4098 71.5635C27.9086 71.7938 26.4438 72.4653 25.9941 72.6699C25.9298 72.7019 25.8977 72.7723 25.9234 72.8426C26.9 75.4967 28.6989 76.9612 31.1467 77.0955L31.1402 77.1019Z" fill="black"></path><path d="M18.7212 58.3955H18.5606C15.7273 58.3955 13.4209 60.5443 13.4209 63.3903V72.1135C13.4209 74.9531 15.7273 77.1019 18.5606 77.1019H18.7212C21.5545 77.1019 23.8609 74.9531 23.8609 72.1135V63.3903C23.8609 60.5443 21.5545 58.3955 18.7212 58.3955ZM20.6294 72.1135C20.6294 73.1624 19.7749 73.8595 18.7212 73.8595H18.5606C17.507 73.8595 16.6525 73.1624 16.6525 72.1135V63.3903C16.6525 62.3414 17.507 61.6379 18.5606 61.6379H18.7212C19.7749 61.6379 20.6294 62.335 20.6294 63.3903V72.1135Z" fill="black"></path><path d="M97.1469 88.1091L96.6522 87.8661C96.3438 88.3457 95.7656 88.5632 95.091 88.5632C93.9603 88.5632 93.2086 88.0388 93.2086 87.0283C93.2086 86.0178 93.9603 85.487 95.091 85.487C95.7656 85.487 96.3374 85.7109 96.6458 86.1905L97.1341 85.9475C96.7679 85.3975 96.0612 85.001 95.0975 85.001C93.5877 85.001 92.6689 85.794 92.6689 87.0283C92.6689 88.2626 93.5877 89.0492 95.0782 89.0492C96.0612 89.0492 96.7679 88.6655 97.1405 88.1091H97.1469Z" fill="black"></path><path d="M76.0679 87.2394H78.8562V86.7597H76.0679V85.6086H79.3702V85.1289H75.5347V88.9277H79.428V88.4545H76.0679V87.2394Z" fill="black"></path><path d="M102.891 86.7469H99.6655V85.1289H99.1387V88.9277H99.6655V87.2522H102.891V88.9277H103.424V85.1289H102.891V86.7469Z" fill="black"></path><path d="M85.7945 88.9277V85.1289H85.2741V88.1539L82.0875 85.1289H81.5093V88.9277H82.0297V85.8004L85.3255 88.9277H85.7945Z" fill="black"></path><path d="M126.938 85.1289L124.748 88.9277H125.332L125.891 87.9493H128.551L129.103 88.9277H129.701L127.517 85.1289H126.926H126.938ZM126.161 87.476L127.227 85.6086L128.288 87.476H126.161Z" fill="black"></path><path d="M90.729 86.8232H88.0371V87.2773H90.729V86.8232Z" fill="black"></path><path d="M141.67 88.1539L138.477 85.1289H137.898V88.9277H138.419V85.8004L141.715 88.9277H142.184V85.1289H141.67V88.1539Z" fill="black"></path><path d="M145.113 87.2394H147.902V86.7597H145.113V85.6086H148.416V85.1289H144.58V88.9277H148.473V88.4545H145.113V87.2394Z" fill="black"></path><path d="M133.498 87.418H135.271V87.8529C134.988 88.3645 134.352 88.5691 133.575 88.5691C132.373 88.5691 131.628 88.0447 131.628 87.0279C131.628 86.011 132.373 85.4802 133.575 85.4802C134.256 85.4802 134.763 85.6657 135.155 86.1005L135.599 85.7744C135.194 85.3139 134.519 84.9941 133.556 84.9941C132.007 84.9941 131.082 85.7808 131.082 87.0215C131.082 88.2622 132.001 89.0424 133.556 89.0424C134.661 89.0424 135.47 88.5947 135.804 88V86.9319H133.504V87.4116L133.498 87.418Z" fill="black"></path><path d="M122.203 85.1289H119.524V88.9277H120.057V87.5655H122.203C123.135 87.5655 123.764 87.1179 123.764 86.344C123.764 85.5702 123.141 85.1289 122.203 85.1289ZM122.164 87.0987H120.057V85.5894H122.164C122.8 85.5894 123.218 85.8068 123.218 86.344C123.218 86.8812 122.8 87.0987 122.164 87.0987Z" fill="black"></path><path d="M110.215 88.9277L108.03 85.1289H107.439L105.249 88.9277H105.833L106.392 87.9493H109.052L109.604 88.9277H110.202H110.215ZM106.662 87.476L107.728 85.6086L108.789 87.476H106.662Z" fill="black"></path><path d="M114.596 87.3993L112.624 85.1289H112.046V88.9277H112.566V85.8708L114.564 88.1539H114.603L116.601 85.8708V88.9277H117.128V85.1289H116.556L114.596 87.3993Z" fill="black"></path><path d="M19.7108 85.1221L17.52 88.9209H18.1047L18.6636 87.9424H21.3234L21.8759 88.9209H22.4734L20.289 85.1221H19.698H19.7108ZM18.9334 87.4692L19.9999 85.6017L21.06 87.4692H18.9334Z" fill="black"></path><path d="M46.7134 85.1289H46.1802V88.9277H49.7459V88.4353H46.7134V85.1289Z" fill="black"></path><path d="M20.5651 84.6237L19.5243 83.6836H18.6763L20.0704 84.6237H20.5651Z" fill="black"></path><path d="M29.2258 88.5632C28.0951 88.5632 27.3434 88.0388 27.3434 87.0283C27.3434 86.0178 28.0951 85.487 29.2258 85.487C29.9004 85.487 30.4658 85.7109 30.7741 86.1905L31.2688 85.9475C30.9026 85.3975 30.1959 85.001 29.2322 85.001C27.7224 85.001 26.8037 85.794 26.8037 87.0283C26.8037 88.2626 27.7224 89.0492 29.213 89.0492C30.1959 89.0492 30.9026 88.6655 31.2753 88.1091L30.7806 87.8661C30.4722 88.3457 29.9004 88.5632 29.2258 88.5632Z" fill="black"></path><path d="M40.5972 84.6301H41.1947L41.8628 83.9778L42.5374 84.6301H43.1413L42.1519 83.6836H41.5801L40.5972 84.6301Z" fill="black"></path><path d="M37.0254 86.7469H33.8003V85.1289H33.2734V88.9277H33.8003V87.2522H37.0254V88.9277H37.5587V85.1289H37.0254V86.7469Z" fill="black"></path><path d="M55.978 87.0342C55.978 85.7935 55.0593 85.0068 53.5367 85.0068C52.014 85.0068 51.0889 85.7935 51.0889 87.0342C51.0889 88.2749 52.0076 89.0551 53.5367 89.0551C55.0657 89.0551 55.978 88.2685 55.978 87.0342ZM51.6285 87.0342C51.6285 86.0493 52.3802 85.4929 53.5367 85.4929C54.6931 85.4929 55.4384 86.0429 55.4384 87.0342C55.4384 88.0254 54.6867 88.569 53.5367 88.569C52.3866 88.569 51.6285 88.019 51.6285 87.0342Z" fill="black"></path><path d="M61.8371 88.1539L58.6441 85.1289H58.0723V88.9277H58.5927V85.8004L61.8885 88.9277H62.3575V85.1289H61.8371V88.1539Z" fill="black"></path><path d="M66.7072 86.7272C65.782 86.6568 65.056 86.5609 65.056 86.1132C65.056 85.6336 65.8655 85.4609 66.5658 85.4673C67.2275 85.4737 67.8122 85.6592 68.2234 86.0173L68.596 85.672C68.127 85.2882 67.401 85.0068 66.5337 85.0068C65.4543 85.0068 64.5163 85.4161 64.5163 86.1452C64.5163 86.8743 65.5443 87.1365 66.6172 87.226C67.6773 87.3156 68.2426 87.4243 68.2426 87.8656C68.2426 88.3068 67.6965 88.5818 66.7521 88.5818C65.949 88.5818 65.3066 88.3708 64.7348 87.9103L64.375 88.2749C64.9982 88.7865 65.8462 89.0487 66.72 89.0487C68.0306 89.0487 68.7823 88.5307 68.7823 87.8272C68.7823 87.0661 67.9278 86.8359 66.7072 86.74V86.7272Z" fill="black"></path><path d="M41.5741 85.1289L39.3833 88.9277H39.9679L40.5269 87.9493H43.1867L43.7392 88.9277H44.3367L42.1523 85.1289H41.5613H41.5741ZM40.7967 87.476L41.8632 85.6086L42.9233 87.476H40.7967Z" fill="black"></path><path d="M73.2862 86.8232H70.5942V87.2773H73.2862V86.8232Z" fill="black"></path><path d="M91.0435 98.2323L88.3066 95.6357H87.8184V98.891H88.2617V96.2113L91.0885 98.891H91.4868V95.6357H91.0435V98.2323Z" fill="black"></path><path d="M95.7529 96.1991V96.5892C96.1513 96.5316 96.511 96.3973 96.8194 96.1671V98.8851H97.2756V95.6299H96.9286C96.6074 95.8985 96.1834 96.1351 95.7529 96.1927V96.1991Z" fill="black"></path><path d="M101.824 97.1518C102.242 97.107 102.672 96.8384 102.672 96.3843C102.672 95.8471 101.869 95.5273 100.95 95.5273C100.032 95.5273 99.2222 95.8471 99.2222 96.3843C99.2222 96.8448 99.6591 97.1134 100.077 97.1518C99.6655 97.1901 99.0938 97.4396 99.0938 98.0215C99.0938 98.6035 99.8454 98.9936 100.957 98.9936C102.068 98.9936 102.814 98.5907 102.814 98.0215C102.814 97.4523 102.242 97.1901 101.831 97.1518H101.824ZM99.6784 96.4355C99.6784 96.0709 100.276 95.8919 100.95 95.8919C101.625 95.8919 102.223 96.0709 102.223 96.4355C102.223 96.8576 101.625 96.9855 100.95 96.9855C100.276 96.9855 99.6784 96.864 99.6784 96.4355ZM100.944 98.6291C100.135 98.6291 99.5627 98.3733 99.5627 97.9704C99.5627 97.5099 100.135 97.318 100.944 97.318C101.754 97.318 102.332 97.5099 102.332 97.9704C102.332 98.3669 101.76 98.6291 100.944 98.6291Z" fill="black"></path><path d="M77.0249 94.3955L76.1318 95.2077H76.5494L77.7508 94.3955H77.0249Z" fill="black"></path><path d="M83.148 97.4456H85.5379V97.0363H83.148V96.045H85.9812V95.6357H82.6982V98.891H86.0326V98.4817H83.148V97.4456Z" fill="black"></path><path d="M106.309 97.625C107.118 97.3436 107.69 97.043 107.69 96.4866C107.69 95.8663 106.906 95.5273 106.077 95.5273C105.249 95.5273 104.658 95.8855 104.394 96.3523L104.748 96.5506C105.037 96.1349 105.416 95.9111 106.065 95.9111C106.675 95.9111 107.227 96.1029 107.227 96.493C107.227 96.8832 106.733 97.0494 106.058 97.2861C105.056 97.6314 104.407 98.1047 104.298 98.6739V98.8913H107.767V98.5076H104.863C104.979 98.143 105.519 97.9 106.315 97.625H106.309Z" fill="black"></path><path d="M75.4317 97.4456H77.8216V97.0363H75.4317V96.045H78.2649V95.6357H74.9819V98.891H78.3163V98.4817H75.4317V97.4456Z" fill="black"></path><path d="M111.192 96.8317C110.703 96.8317 110.324 96.8828 109.868 97.1003L110.061 96.0259H112.496V95.6357H109.688L109.393 97.2985L109.759 97.452C110.221 97.2666 110.6 97.1898 111.037 97.1898C111.847 97.1898 112.38 97.4201 112.38 97.8933C112.38 98.3666 111.847 98.6032 111.089 98.6032C110.382 98.6032 109.939 98.3602 109.547 97.9573L109.226 98.2003C109.65 98.6671 110.279 98.9997 111.089 98.9997C112.2 98.9997 112.843 98.5073 112.843 97.9061C112.843 97.1642 112.072 96.8317 111.185 96.8317H111.192Z" fill="black"></path><path d="M59.8201 95.5273C58.5095 95.5273 57.7192 96.1989 57.7192 97.2669C57.7192 98.3349 58.5095 99 59.8201 99C61.1307 99 61.9145 98.3285 61.9145 97.2669C61.9145 96.2053 61.1243 95.5273 59.8201 95.5273ZM59.8201 98.5779C58.8307 98.5779 58.1882 98.1047 58.1882 97.2669C58.1882 96.4291 58.8307 95.9494 59.8201 95.9494C60.8095 95.9494 61.4455 96.4227 61.4455 97.2669C61.4455 98.1111 60.8031 98.5779 59.8201 98.5779Z" fill="black"></path><path d="M53.1509 98.891H53.6006V97.5288H55.9906V97.1195H53.6006V96.045H56.4339V95.6357H53.1509V98.891Z" fill="black"></path><path d="M66.9386 98.2323L64.2017 95.6357H63.707V98.891H64.1503V96.2113L66.9836 98.891H67.3819V95.6357H66.9386V98.2323Z" fill="black"></path><path d="M71.1144 95.6357H69.4312V98.891H71.1144C72.3736 98.891 73.1832 98.2642 73.1832 97.2666C73.1832 96.2689 72.3801 95.6357 71.1144 95.6357ZM71.0823 98.4753H69.8873V96.0578H71.0823C72.0396 96.0578 72.7141 96.448 72.7141 97.2666C72.7141 98.0852 72.0396 98.4753 71.0823 98.4753Z" fill="black"></path></g><defs><clipPath id="clip0_1300_518"><rect width="166" height="99" fill="white"></rect></clipPath></defs></svg>