<svg xmlns="http://www.w3.org/2000/svg" width="22" height="22" viewBox="0 0 22 22" fill="none"><path d="M16 1.22852H6C3.23858 1.22852 1 3.46709 1 6.22852V16.2285C1 18.9899 3.23858 21.2285 6 21.2285H16C18.7614 21.2285 21 18.9899 21 16.2285V6.22852C21 3.46709 18.7614 1.22852 16 1.22852Z" stroke="black" stroke-width="0.5" stroke-linecap="round" stroke-linejoin="round"></path><path d="M13.5 9C14.6935 9 15.8381 9.43764 16.682 10.2166C17.5259 10.9956 18 12.0522 18 13.1538V18H15V13.1538C15 12.7866 14.842 12.4344 14.5607 12.1748C14.2794 11.9151 13.8978 11.7692 13.5 11.7692C13.1022 11.7692 12.7206 11.9151 12.4393 12.1748C12.158 12.4344 12 12.7866 12 13.1538V18H9V13.1538C9 12.0522 9.47411 10.9956 10.318 10.2166C11.1619 9.43764 12.3065 9 13.5 9Z" fill="black"></path><path d="M8 9H5V18H8V9Z" fill="black"></path><path d="M6.5 7C7.32843 7 8 6.32843 8 5.5C8 4.67157 7.32843 4 6.5 4C5.67157 4 5 4.67157 5 5.5C5 6.32843 5.67157 7 6.5 7Z" fill="black"></path></svg>