<svg xmlns="http://www.w3.org/2000/svg" width="259" height="155" fill="none" viewBox="0 0 259 155"><g clip-path="url(#a)"><path fill="#fff" d="m106.1 38.85.38.8c.04.09.15.12.24.08l14.51-7.28c-.35-.27-.68-.55-.99-.85l-14.04 7c-.1.05-.15.16-.1.24v.01Zm14.26 7.82c.08.04.2 0 .24-.1l5.33-11.95c-.41-.09-.82-.21-1.21-.34l-5.26 11.78c-.04.1 0 .21.08.25l.81.36h.01Zm-5.08 1.73s.09.03.14 0c.04-.01.08-.05.1-.1l7.95-14.53c-.37-.17-.73-.35-1.07-.55l-7.96 14.51c-.05.1-.02.2.06.25l.79.41-.01.01Zm7.13-30.07c.34-.2.7-.38 1.07-.55l-7.89-14.53c-.04-.07-.1-.11-.17-.11-.03 0-.05 0-.08.03l-.79.4c-.09.04-.12.15-.07.25l7.93 14.51Zm-18.84 14.15s.09.02.14 0l14.27-4.45c-.12-.39-.21-.78-.27-1.18l-14.38 4.47c-.1.03-.16.13-.13.22l.28.84s.04.08.09.1Zm-.22-12.27 14.36 4.49c.06-.4.15-.79.27-1.18l-14.23-4.48s-.05-.01-.07-.01c-.08 0-.15.04-.17.12l-.29.84c-.04.09.02.19.12.22h.01Zm5.26-3.44s-.05-.02-.08-.02c-.07 0-.14.04-.17.11l-.33.82c-.04.09.02.2.11.24l10.42 4.22c.2-.37.43-.73.68-1.06l-10.64-4.31h.01Zm11.64 3.17c.31-.3.64-.58 1-.85l-14.49-7.3s-.06-.02-.09-.02c-.06 0-.12.03-.16.09l-.38.81s-.02.08 0 .14c.01.04.05.08.1.1l14.03 7.05-.01-.02Zm4.5-2.66c.39-.13.8-.25 1.21-.34L120.66 5a.195.195 0 0 0-.17-.12c-.02 0-.05 0-.07.02l-.81.36c-.08.04-.12.15-.08.25l5.23 11.78-.01-.01Zm-2.26 34.27c.09.04.19-.01.23-.11l5.79-16.47c-.42-.02-.83-.05-1.24-.11L121.56 51c-.04.1 0 .22.1.24l.83.32v-.01Zm27.77-33.58c.1-.04.15-.15.11-.24l-.33-.82a.175.175 0 0 0-.17-.11c-.03 0-.05 0-.08.02l-10.65 4.29c.25.34.48.69.68 1.06l10.44-4.2Zm-42.25 15.87.33.82c.04.09.15.13.25.09l10.65-4.29c-.26-.34-.48-.69-.68-1.06l-10.44 4.21c-.1.04-.15.14-.11.24v-.01Zm32.66-9.12 14.38-4.46c.1-.03.16-.13.12-.22l-.29-.84c-.01-.08-.08-.12-.16-.12-.02 0-.05 0-.07.01l-14.25 4.45c.12.38.21.78.27 1.18Zm14.38 6.64-14.38-4.51c-.06.4-.15.8-.27 1.19l14.27 4.49s.1.02.14 0c.05-.02.09-.06.09-.1l.29-.84c.03-.09-.03-.19-.13-.23h-.01Zm-17.91 1.1 14.49 7.31c.1.05.21.02.24-.07l.38-.8c.05-.09 0-.19-.09-.24l-14.03-7.04c-.31.29-.64.58-.99.85v-.01Zm.85 14.21.81-.36c.09-.04.13-.15.08-.25l-5.23-11.8c-.39.13-.79.25-1.21.34l5.3 11.96c.04.1.15.15.24.11h.01Zm-8.11-11.71 5.74 16.47c.04.1.14.15.23.11l.83-.32c.1-.02.14-.13.1-.24l-5.66-16.14c-.41.05-.82.09-1.23.11l-.01.01Zm13.06 13.46s.1.02.13 0l.79-.4c.08-.05.11-.16.06-.25l-7.93-14.54c-.34.2-.7.39-1.07.56l7.91 14.55s.06.08.1.1l.01-.02Zm6.84-13.63c.1.04.21 0 .25-.09l.33-.83c.04-.09-.01-.19-.11-.24l-10.44-4.23c-.2.37-.43.73-.68 1.06l10.65 4.32v.01Zm-11.64-14.83 14.05-7.01s.08-.05.1-.1c.03-.05.02-.11 0-.14l-.38-.81c-.03-.06-.09-.09-.16-.09-.03 0-.06 0-.1.02l-14.51 7.27c.36.26.69.55 1 .85v.01ZM136.82.58s.02-.1 0-.14c-.02-.05-.06-.09-.09-.1l-.83-.32h-.05c-.08 0-.15.05-.18.13l-5.79 16.45c.42.02.83.06 1.24.11l5.7-16.12V.58Zm-9.53 16.13c.41-.06.82-.09 1.24-.11L122.78.13c-.03-.08-.1-.13-.17-.13h-.05l-.83.31s-.08.05-.09.1a.17.17 0 0 0 0 .14l5.66 16.15-.01.01Zm6.36.58 5.26-11.76c.04-.1 0-.21-.08-.25l-.81-.36s-.04-.01-.07-.01a.18.18 0 0 0-.17.12l-5.33 11.92c.41.09.82.21 1.21.34h-.01Zm2.34 1.06 7.96-14.49c.05-.1.03-.21-.07-.25l-.79-.41s-.05-.03-.08-.03c-.06 0-.13.04-.17.11l-7.93 14.5c.37.17.73.35 1.07.55l.01.02Zm-6.18 12.06c0 .07.05.12.12.12h1.52c.07 0 .12-.06.12-.12-.02-.42-.07-1.86-.08-3.16 0-.07.05-.12.12-.12h.93c1.63 0 2.95-1.32 2.95-2.95v-.22c0-1.62-1.32-2.95-2.95-2.95h-2.61c-.07 0-.12.05-.12.12.02.51.08 2.55.08 4.44 0 1.89-.06 4.29-.08 4.84Zm1.68-7.59c0-.07.05-.12.12-.12h1.04c.63 0 1.14.51 1.14 1.14v.45c0 .63-.51 1.14-1.14 1.14h-1.04c-.07 0-.12-.05-.12-.12v-2.49Zm-6.93 4.37H123s-.06.02-.07.05c-.02.07-.04.21-.04.52 0 1.77 1.13 2.73 2.57 2.8.74.04 1.46-.23 2-.75s.84-1.22.84-1.97v-6.76s-.03-.07-.07-.07h-1.68s-.08.04-.08.09c.04.27.15 1.14.15 2.58v4.13c0 .55-.41 1.02-.93 1.07-.3.03-.58-.06-.8-.26a.957.957 0 0 1-.34-.76c0-.22.04-.44.06-.56 0-.04-.03-.09-.07-.09l.02-.02Zm59.66 42.38 10.4 9.9h1.47V67.45h-1.63v9.58l-10.06-9.58h-1.8v12.02h1.62v-9.9Zm-28.52 9.9h1.89l-6.88-12.03h-1.87l-6.9 12.03h1.85l1.77-3.1h8.39l1.75 3.1Zm-9.3-4.59 3.36-5.91 3.34 5.91h-6.7Zm22.9 4.99c3.48 0 6.04-1.41 7.08-3.3v-3.38h-7.26v1.51h5.59v1.37c-.9 1.61-2.9 2.27-5.35 2.27-3.78 0-6.14-1.65-6.14-4.87s2.35-4.89 6.14-4.89c2.15 0 3.74.6 4.99 1.97l1.39-1.03c-1.27-1.45-3.4-2.46-6.44-2.46-4.89 0-7.79 2.48-7.79 6.42s2.9 6.4 7.79 6.4v-.01Zm-118.85 0c3.1 0 5.33-1.21 6.5-2.98l-1.55-.78c-.97 1.53-2.78 2.21-4.91 2.21-3.56 0-5.92-1.65-5.92-4.85 0-3.2 2.37-4.87 5.92-4.87 2.13 0 3.92.72 4.89 2.23l1.55-.78c-1.15-1.73-3.38-3-6.42-3-4.75 0-7.65 2.5-7.65 6.42s2.9 6.4 7.59 6.4Zm53.9-10.08 6.3 7.24h.12l6.3-7.24v9.68h1.67V67.45h-1.81l-6.18 7.17-6.2-7.17h-1.83v12.02h1.63v-9.68Zm-39.84 4.38h10.16v5.3h1.67V67.45h-1.67v5.13H64.51v-5.13h-1.67v12.02h1.67v-5.3Zm151 3.8h-10.59v-3.84h8.79v-1.51h-8.79v-3.66h10.42v-1.51h-12.09v12.02h12.26v-1.5ZM88.6 67.45l-6.9 12.03h1.85l1.77-3.1h8.39l1.75 3.1h1.89l-6.88-12.03H88.6Zm-2.45 7.44 3.36-5.91 3.34 5.91h-6.7Zm41.42.27h6.76c2.94 0 4.91-1.41 4.91-3.85 0-2.44-1.97-3.86-4.91-3.86h-8.43v12.03h1.67v-4.32Zm0-6.24h6.64c2.01 0 3.32.7 3.32 2.39 0 1.69-1.31 2.39-3.32 2.39h-6.64v-4.78Zm90.79 51.15c-.04-1.48-.25-10.1-.25-14.1s.21-12.61.25-14.09c0-.12-.09-.22-.21-.22h-4.64c-.12 0-.22.1-.21.22.04 1.4.24 9.23.24 14.11 0 4.88-.21 12.68-.24 14.08 0 .12.09.22.21.22h4.64c.12 0 .22-.1.21-.22Zm40.01-.08c-.51-1.82-.83-4.49-.89-6.23-.1-3.42-.99-4.7-2.78-5.76 1.88-1.5 3.57-4.28 3.57-7.1v-.41c0-4.89-3.98-8.83-8.87-8.83h-7.95a.25.25 0 0 0-.25.26c.05 1 .24 4.92.24 13.02s-.19 13.87-.24 15.09c0 .14.11.26.25.26h4.56c.14 0 .25-.11.25-.25v-10.16c0-.07.06-.13.13-.13h2.14c2.26 0 3.8.86 3.94 4.66.14 3.84.48 5.26.62 5.71.03.1.13.17.24.17h4.8c.17 0 .28-.16.24-.32v.02Zm-9.16-15.32h-2.8c-.07 0-.12-.05-.12-.12v-7.69c0-.07.06-.12.12-.12h2.8c2.18 0 3.97 1.79 3.97 3.97s-1.79 3.97-3.97 3.97v-.01Zm-81.91 10.52c0-.12-.1-.22-.22-.21l-8.7.24c-.07 0-.13-.05-.13-.12v-7.05c0-.07.05-.13.13-.12.77.03 4.79.19 5.78.24.12 0 .22-.09.22-.21v-4.62c0-.12-.1-.22-.22-.21l-5.78.24c-.07 0-.13-.05-.13-.12V96.9c0-.07.06-.13.13-.12l8.7.24c.12 0 .22-.09.22-.21v-4.89c0-.12-.09-.21-.21-.21h-13.78c-.2-.01-.36.15-.36.35.05 1.56.24 7.78.24 12.94 0 5.16-.2 13.19-.24 14.97 0 .2.15.36.35.36h13.99v-5.1l.01-.04Zm-92.07 4.74v-4.75c0-.12-.1-.22-.22-.21l-8.7.24c-.07 0-.13-.05-.13-.12v-7.05c0-.07.06-.13.13-.12.76.03 4.79.19 5.78.24.12 0 .22-.09.22-.21v-4.62c0-.12-.1-.22-.22-.21l-5.77.24c-.07 0-.13-.06-.13-.13v-6.35c0-.07.06-.13.13-.12l8.7.24c.12 0 .22-.09.22-.21V91.9c0-.12-.09-.21-.21-.21H61.25c-.2-.01-.36.15-.36.35.05 1.56.24 7.78.24 12.94 0 5.16-.2 13.21-.24 14.97 0 .2.15.35.35.35h13.64c.2 0 .35-.16.35-.35v-.02Zm161.76-28.27h-13.78c-.2-.01-.36.15-.36.35.05 1.56.24 7.78.24 12.94 0 5.16-.19 13.19-.24 14.97 0 .2.15.36.35.36h13.99v-5.1c0-.12-.1-.22-.22-.21l-8.7.24c-.07 0-.13-.05-.13-.12v-7.05c0-.07.06-.13.13-.13.78.03 4.78.19 5.77.24.12 0 .22-.09.22-.21v-4.62c0-.12-.1-.22-.22-.21l-5.78.24c-.07 0-.13-.05-.13-.12v-6.35c0-.07.06-.13.13-.12l8.7.24c.12 0 .22-.09.22-.21V91.9c0-.12-.1-.21-.21-.21l.02-.03Zm-87.56 9.54v-.66c0-4.89-3.98-8.86-8.87-8.86l-7.86-.02c-.2 0-.36.16-.36.37.05 1.54.25 7.65.25 13.36 0 5.71-.18 12.89-.23 14.57 0 .2.16.37.36.37 0 0 3.44-.02 4.58-.02.2 0 .36-.17.35-.37-.05-1.29-.23-5.77-.23-9.74 0-.07.06-.12.13-.12h3.02c4.89 0 8.87-3.98 8.87-8.86l-.01-.02Zm-5.11.34c0 1.88-1.54 3.42-3.42 3.42h-3.35c-.07 0-.12-.06-.12-.12V96.9c0-.07.06-.13.12-.13h3.35c1.88 0 3.42 1.54 3.42 3.42v1.35ZM16.06 91.65h-5.05c-.14 0-.25.13-.23.27.12.81.46 3.42.46 7.75v12.41c0 1.65-1.23 3.06-2.79 3.22-.89.1-1.73-.19-2.39-.79-.64-.58-1.02-1.33-1.02-2.3 0-.67.12-1.34.19-1.69a.214.214 0 0 0-.21-.26H.33c-.1 0-.18.06-.21.15-.06.2-.13.64-.13 1.55 0 5.33 3.39 8.2 7.72 8.41 2.23.11 4.38-.68 6.02-2.25a8.137 8.137 0 0 0 2.53-5.92V91.87c0-.12-.09-.21-.21-.21l.01-.01Zm80.69 9.55v-.66c0-4.89-3.98-8.86-8.87-8.86l-7.86-.02c-.2 0-.36.16-.36.37.05 1.54.25 7.65.25 13.36 0 5.71-.18 12.89-.23 14.57 0 .2.16.37.36.37 0 0 3.44-.02 4.58-.02.2 0 .36-.17.35-.37-.05-1.29-.23-5.77-.24-9.74 0-.07.06-.12.13-.12h3.02c4.89 0 8.87-3.98 8.87-8.86v-.02Zm-5.11.34c0 1.88-1.54 3.42-3.42 3.42h-3.35c-.07 0-.12-.06-.12-.12V96.9c0-.07.05-.13.12-.13h3.35c1.88 0 3.42 1.54 3.42 3.42v1.35ZM117 119.92c-.05-1.7-.24-9-.24-14.55 0-5.55.19-11.81.24-13.37 0-.2-.15-.36-.35-.36h-4.58c-.2 0-.36.17-.35.37l.24 11.01c0 .07-.06.13-.13.13l-6.59-.04c-.07 0-.13-.06-.12-.13l.24-10.95c0-.2-.16-.36-.35-.36h-4.59c-.2 0-.36.17-.36.37.05 1.46.24 7.04.24 13.34s-.19 12.95-.24 14.55c0 .2.15.36.35.36H105c.2 0 .36-.16.35-.36l-.24-11.62c0-.07.06-.13.13-.13h6.59c.07 0 .13.06.12.13l-.24 11.62c0 .2.16.36.35.36h4.59c.2 0 .36-.17.36-.37H117Zm87.22.39h4.8c.17 0 .28-.16.24-.32-.51-1.82-.83-4.49-.89-6.23-.1-3.42-.99-4.7-2.78-5.76 1.88-1.5 3.57-4.28 3.57-7.1v-.41c0-4.89-3.98-8.83-8.87-8.83h-7.95a.25.25 0 0 0-.25.26c.06 1 .24 4.92.24 13.02s-.19 13.87-.24 15.09c0 .14.11.26.25.26h4.56c.14 0 .25-.11.25-.25v-10.16c0-.07.06-.13.12-.13h2.14c2.26 0 3.8.86 3.94 4.66.14 3.84.48 5.26.62 5.71.03.1.13.17.24.17l.01.02Zm-4.12-15.63h-2.8c-.07 0-.12-.05-.12-.12v-7.69c0-.07.06-.12.12-.12h2.8c2.18 0 3.97 1.79 3.97 3.97s-1.79 3.97-3.97 3.97v-.01Zm-11.64 15.31c-.51-1.82-.83-4.49-.89-6.23-.1-3.42-.99-4.7-2.78-5.76 1.88-1.5 3.57-4.28 3.57-7.1v-.41c0-4.89-3.98-8.83-8.87-8.83h-7.95a.25.25 0 0 0-.25.26c.05 1 .24 4.92.24 13.02s-.19 13.87-.24 15.09c0 .14.11.26.25.26h4.56c.14 0 .25-.11.25-.25v-10.16c0-.07.06-.13.12-.13h2.14c2.26 0 3.8.86 3.94 4.66.14 3.84.48 5.26.62 5.71.03.1.13.17.24.17h4.81c.17 0 .28-.16.24-.32v.02Zm-9.16-15.32h-2.8c-.07 0-.12-.05-.12-.12v-7.69c0-.07.06-.12.12-.12h2.8c2.18 0 3.97 1.79 3.97 3.97s-1.79 3.97-3.97 3.97v-.01ZM48.47 120.56c7.92 0 8.74-6.4 8.74-7.75 0-6.15-3.37-7.2-6.61-8.68-3.68-1.68-5.3-2.29-5.18-4.73.1-1.99 1.41-3 3.49-3 2.52 0 3.39 2.28 3.66 3.05.04.12.18.18.29.12.85-.39 3.25-1.47 4-1.84.1-.05.14-.16.1-.26-1.36-3.66-3.83-6.16-7.68-6.16-3.85 0-8.56 2.19-8.63 7.85-.06 4.74 2.1 7.03 6.53 8.74 3.42 1.32 5.34 1.9 5.3 4.3-.02 1.21-.83 3.45-3.46 3.45s-3.7-1.85-4.52-3.64c-.05-.11-.17-.16-.28-.11-.78.36-3.06 1.41-3.76 1.73-.1.05-.15.16-.11.27 1.52 4.15 4.32 6.44 8.13 6.65l-.01.01ZM29.14 91.31h-.25c-4.41 0-8 3.36-8 7.81v13.64c0 4.44 3.59 7.8 8 7.8h.25c4.41 0 8-3.36 8-7.8V99.12c0-4.45-3.59-7.81-8-7.81Zm2.97 21.45c0 1.64-1.33 2.73-2.97 2.73h-.25c-1.64 0-2.97-1.09-2.97-2.73V99.12c0-1.64 1.33-2.74 2.97-2.74h.25c1.64 0 2.97 1.09 2.97 2.74v13.64Zm119.1 25.01-.77-.38c-.48.75-1.38 1.09-2.43 1.09-1.76 0-2.93-.82-2.93-2.4s1.17-2.41 2.93-2.41c1.05 0 1.94.35 2.42 1.1l.76-.38c-.57-.86-1.67-1.48-3.17-1.48-2.35 0-3.78 1.24-3.78 3.17s1.43 3.16 3.75 3.16c1.53 0 2.63-.6 3.21-1.47h.01Zm-32.81-1.36h4.34v-.75h-4.34v-1.8h5.14v-.75h-5.97v5.94h6.06v-.74h-5.23v-1.9Zm41.75-.77h-5.02v-2.53h-.82v5.94h.82v-2.62h5.02v2.62h.83v-5.94h-.83v2.53Zm-26.61 3.41v-5.94h-.81v4.73l-4.96-4.73h-.9v5.94h.81v-4.89l5.13 4.89h.73Zm64.04-5.94-3.41 5.94h.91l.87-1.53h4.14l.86 1.53h.93l-3.4-5.94h-.92.02Zm-1.21 3.67 1.66-2.92 1.65 2.92h-3.31Zm-55.15-1.02h-4.19v.71h4.19v-.71Zm79.29 2.08-4.97-4.73h-.9v5.94h.81v-4.89l5.13 4.89h.73v-5.94h-.8v4.73Zm5.36-1.43h4.34v-.75h-4.34v-1.8h5.14v-.75h-5.97v5.94h6.06v-.74h-5.23v-1.9Zm-18.08.28h2.76v.68c-.44.8-1.43 1.12-2.64 1.12-1.87 0-3.03-.82-3.03-2.41 0-1.59 1.16-2.42 3.03-2.42 1.06 0 1.85.29 2.46.97l.69-.51c-.63-.72-1.68-1.22-3.18-1.22-2.41 0-3.85 1.23-3.85 3.17s1.43 3.16 3.85 3.16c1.72 0 2.98-.7 3.5-1.63v-1.67h-3.58v.75l-.01.01Zm-17.58-3.58h-4.17v5.94h.83v-2.13h3.34c1.45 0 2.43-.7 2.43-1.91s-.97-1.9-2.43-1.9Zm-.06 3.08h-3.28v-2.36h3.28c.99 0 1.64.34 1.64 1.18 0 .84-.65 1.18-1.64 1.18Zm-18.6 2.86-3.4-5.94h-.92l-3.41 5.94h.91l.87-1.53h4.14l.86 1.53h.95Zm-5.53-2.27 1.66-2.92 1.65 2.92h-3.31Zm12.35-.12-3.07-3.55h-.9v5.94h.81v-4.78l3.11 3.57h.06l3.11-3.57v4.78h.82v-5.94h-.89l-3.05 3.55ZM30.68 133.1l-3.41 5.94h.91l.87-1.53h4.14l.86 1.53h.93l-3.4-5.94h-.92.02Zm-1.21 3.67 1.66-2.92 1.65 2.92h-3.31Zm43.24-3.66h-.83v5.94h5.55v-.77h-4.72v-5.17Zm-40.7-.79-1.62-1.47h-1.32l2.17 1.47h.77Zm13.48 6.16c-1.76 0-2.93-.82-2.93-2.4s1.17-2.41 2.93-2.41c1.05 0 1.93.35 2.41 1.1l.77-.38c-.57-.86-1.67-1.48-3.17-1.48-2.35 0-3.78 1.24-3.78 3.17s1.43 3.16 3.75 3.16c1.53 0 2.63-.6 3.21-1.47l-.77-.38c-.48.75-1.37 1.09-2.42 1.09Zm17.7-6.15h.93l1.04-1.02 1.05 1.02h.94l-1.54-1.48h-.89l-1.53 1.48Zm-5.56 3.31h-5.02v-2.53h-.82v5.94h.82v-2.62h5.02v2.62h.83v-5.94h-.83v2.53Zm29.5.45c0-1.94-1.43-3.17-3.8-3.17s-3.81 1.23-3.81 3.17 1.43 3.16 3.81 3.16 3.8-1.23 3.8-3.16Zm-6.77 0c0-1.54 1.17-2.41 2.97-2.41 1.8 0 2.96.86 2.96 2.41 0 1.55-1.17 2.4-2.96 2.4s-2.97-.86-2.97-2.4Zm15.89 1.75-4.97-4.73h-.89v5.94h.81v-4.89l5.13 4.89h.73v-5.94h-.81v4.73Zm7.58-2.23c-1.44-.11-2.57-.26-2.57-.96 0-.75 1.26-1.02 2.35-1.01 1.03.01 1.94.3 2.58.86l.58-.54c-.73-.6-1.86-1.04-3.21-1.04-1.68 0-3.14.64-3.14 1.78 0 1.14 1.6 1.55 3.27 1.69 1.65.14 2.53.31 2.53 1s-.85 1.12-2.32 1.12c-1.25 0-2.25-.33-3.14-1.05l-.56.57c.97.8 2.29 1.21 3.65 1.21 2.04 0 3.21-.81 3.21-1.91 0-1.19-1.33-1.55-3.23-1.7v-.02Zm-39.12-2.5-3.41 5.94h.91l.87-1.53h4.14l.86 1.53h.93l-3.4-5.94h-.92.02Zm-1.21 3.67 1.66-2.92 1.65 2.92H63.5Zm50.57-1.02h-4.19v.71h4.19v-.71Zm27.64 17.84-4.26-4.06h-.76v5.09h.69v-4.19l4.4 4.19h.62v-5.09h-.69v4.06Zm7.33-3.18v.61c.62-.09 1.18-.3 1.66-.66v4.25h.71v-5.09h-.54c-.5.42-1.16.79-1.83.88v.01Zm9.45 1.49c.65-.07 1.32-.49 1.32-1.2 0-.84-1.25-1.34-2.68-1.34-1.43 0-2.69.5-2.69 1.34 0 .72.68 1.14 1.33 1.2-.64.06-1.53.45-1.53 1.36 0 .91 1.17 1.52 2.9 1.52s2.89-.63 2.89-1.52-.89-1.3-1.53-1.36h-.01Zm-3.34-1.12c0-.57.93-.85 1.98-.85 1.05 0 1.98.28 1.98.85 0 .66-.93.86-1.98.86-1.05 0-1.98-.19-1.98-.86Zm1.97 3.43c-1.26 0-2.15-.4-2.15-1.03 0-.72.89-1.02 2.15-1.02 1.26 0 2.16.3 2.16 1.02 0 .62-.89 1.03-2.16 1.03Zm-37.23-6.62-1.39 1.27h.65l1.87-1.27h-1.13Zm9.53 4.77h3.72v-.64h-3.72v-1.55h4.41v-.64h-5.11v5.09h5.19v-.64h-4.49v-1.62Zm36.05.28c1.26-.44 2.15-.91 2.15-1.78 0-.97-1.22-1.5-2.51-1.5-1.29 0-2.21.56-2.62 1.29l.55.31c.45-.65 1.04-1 2.05-1 .95 0 1.81.3 1.81.91 0 .61-.77.87-1.82 1.24-1.56.54-2.57 1.28-2.74 2.17v.34h5.4v-.6h-4.52c.18-.57 1.02-.95 2.26-1.38h-.01Zm-48.06-.28h3.72v-.64h-3.72v-1.55h4.41v-.64h-5.11v5.09h5.19v-.64h-4.49v-1.62Zm55.66-.96c-.76 0-1.35.08-2.06.42l.3-1.68h3.79v-.61h-4.37l-.46 2.6.57.24c.72-.29 1.31-.41 1.99-.41 1.26 0 2.09.36 2.09 1.1 0 .74-.83 1.11-2.01 1.11-1.1 0-1.79-.38-2.4-1.01l-.5.38c.66.73 1.64 1.25 2.9 1.25 1.73 0 2.73-.77 2.73-1.71 0-1.16-1.2-1.68-2.58-1.68h.01Zm-79.96-2.04c-2.04 0-3.27 1.05-3.27 2.72 0 1.67 1.23 2.71 3.27 2.71s3.26-1.05 3.26-2.71-1.23-2.72-3.26-2.72Zm0 4.77c-1.54 0-2.54-.74-2.54-2.05 0-1.31 1-2.06 2.54-2.06s2.53.74 2.53 2.06-1 2.05-2.53 2.05Zm-10.38.49h.7v-2.13h3.72v-.64h-3.72v-1.68h4.41v-.64h-5.11v5.09Zm21.46-1.03-4.26-4.06h-.77v5.09h.69v-4.19l4.41 4.19h.62v-5.09h-.69v4.06Zm6.5-4.06h-2.62v5.09h2.62c1.96 0 3.22-.98 3.22-2.54s-1.25-2.55-3.22-2.55Zm-.05 4.44h-1.86v-3.78h1.86c1.49 0 2.54.61 2.54 1.89 0 1.28-1.05 1.89-2.54 1.89Z"></path></g><defs><clipPath id="a"><path fill="#fff" d="M0 0h258.38v154.8H0z"></path></clipPath></defs></svg>