<svg xmlns="http://www.w3.org/2000/svg" width="52" height="52" viewBox="0 0 52 52" fill="none"><g clip-path="url(#clip0_693_16685)"><path d="M2.91024 38.8501L3.29024 39.6501C3.33024 39.7401 3.44024 39.7701 3.53024 39.7301L18.0402 32.4501C17.6902 32.1801 17.3602 31.9001 17.0502 31.6001L3.01024 38.6001C2.91024 38.6501 2.86024 38.7601 2.91024 38.8401V38.8501Z" fill="black"></path><path d="M17.1701 46.6698C17.2501 46.7098 17.3701 46.6698 17.4101 46.5698L22.7401 34.6198C22.3301 34.5298 21.9201 34.4098 21.5301 34.2798L16.2701 46.0598C16.2301 46.1598 16.2701 46.2698 16.3501 46.3098L17.1601 46.6698H17.1701Z" fill="black"></path><path d="M12.09 48.4002C12.09 48.4002 12.18 48.4302 12.23 48.4002C12.27 48.3902 12.31 48.3502 12.33 48.3002L20.28 33.7702C19.91 33.6002 19.55 33.4202 19.21 33.2202L11.25 47.7302C11.2 47.8302 11.23 47.9302 11.31 47.9802L12.1 48.3902L12.09 48.4002Z" fill="black"></path><path d="M19.2199 18.3301C19.5599 18.1301 19.9199 17.9501 20.2899 17.7801L12.3899 3.25014C12.3499 3.18014 12.2899 3.14014 12.2199 3.14014C12.1899 3.14014 12.1699 3.14014 12.1399 3.17014L11.3499 3.57014C11.2599 3.61014 11.2299 3.72014 11.2799 3.82014L19.2099 18.3301H19.2199Z" fill="black"></path><path d="M0.380191 32.4801C0.380191 32.4801 0.470191 32.5001 0.520191 32.4801L14.7902 28.0301C14.6702 27.6401 14.5802 27.2501 14.5202 26.8501L0.140191 31.3101C0.0401906 31.3401 -0.0198094 31.4401 0.0101906 31.5301L0.290191 32.3701C0.290191 32.3701 0.330191 32.4501 0.380191 32.4701V32.4801Z" fill="black"></path><path d="M0.160107 20.2098L14.5201 24.6998C14.5801 24.2998 14.6701 23.9098 14.7901 23.5198L0.560107 19.0398C0.560107 19.0398 0.510107 19.0298 0.490107 19.0298C0.410107 19.0298 0.340107 19.0698 0.320107 19.1498L0.0301074 19.9898C-0.00989263 20.0798 0.0501074 20.1798 0.150107 20.2098H0.160107Z" fill="black"></path><path d="M5.41978 16.77C5.41978 16.77 5.36978 16.75 5.33978 16.75C5.26978 16.75 5.19978 16.79 5.16978 16.86L4.83978 17.68C4.79978 17.77 4.85978 17.88 4.94978 17.92L15.3698 22.14C15.5698 21.77 15.7998 21.41 16.0498 21.08L5.40978 16.77H5.41978Z" fill="black"></path><path d="M17.0598 19.94C17.3698 19.64 17.6998 19.36 18.0598 19.09L3.55979 11.79C3.55979 11.79 3.49979 11.77 3.46979 11.77C3.40979 11.77 3.34979 11.8 3.30979 11.86L2.92979 12.67C2.92979 12.67 2.90979 12.75 2.92979 12.81C2.93979 12.85 2.97979 12.89 3.02979 12.91L17.0598 19.96V19.94Z" fill="black"></path><path d="M21.5599 17.2799C21.9499 17.1499 22.3599 17.0299 22.7699 16.9399L17.4699 4.99988C17.4399 4.92988 17.3699 4.87988 17.2999 4.87988C17.2799 4.87988 17.2499 4.87988 17.2299 4.89988L16.4199 5.25988C16.3399 5.29988 16.2999 5.40988 16.3399 5.50988L21.5699 17.2899L21.5599 17.2799Z" fill="black"></path><path d="M19.2998 51.5499C19.3898 51.5899 19.4898 51.5399 19.5298 51.4399L25.3198 34.9699C24.8998 34.9499 24.4898 34.9199 24.0798 34.8599L18.3698 50.9999C18.3298 51.0999 18.3698 51.2199 18.4698 51.2399L19.2998 51.5599V51.5499Z" fill="black"></path><path d="M47.0702 17.9698C47.1702 17.9298 47.2202 17.8198 47.1802 17.7298L46.8502 16.9098C46.8202 16.8398 46.7602 16.7998 46.6802 16.7998C46.6502 16.7998 46.6302 16.7998 46.6002 16.8198L35.9502 21.1098C36.2002 21.4498 36.4302 21.7998 36.6302 22.1698L47.0702 17.9698Z" fill="black"></path><path d="M4.81996 33.8399L5.14996 34.6599C5.18996 34.7499 5.29996 34.7899 5.39996 34.7499L16.05 30.4599C15.79 30.1199 15.57 29.7699 15.37 29.3999L4.92996 33.6099C4.82996 33.6499 4.77996 33.7499 4.81996 33.8499V33.8399Z" fill="black"></path><path d="M37.48 24.7201L51.86 20.2601C51.96 20.2301 52.02 20.1301 51.98 20.0401L51.69 19.2001C51.68 19.1201 51.61 19.0801 51.53 19.0801C51.51 19.0801 51.48 19.0801 51.46 19.0901L37.21 23.5401C37.33 23.9201 37.42 24.3201 37.48 24.7201Z" fill="black"></path><path d="M51.86 31.3601L37.48 26.8501C37.42 27.2501 37.33 27.6501 37.21 28.0401L51.48 32.5301C51.48 32.5301 51.58 32.5501 51.62 32.5301C51.67 32.5101 51.71 32.4701 51.71 32.4301L52 31.5901C52.03 31.5001 51.97 31.4001 51.87 31.3601H51.86Z" fill="black"></path><path d="M33.9502 32.4601L48.4402 39.7701C48.5402 39.8201 48.6502 39.7901 48.6802 39.7001L49.0602 38.9001C49.1102 38.8101 49.0602 38.7101 48.9702 38.6601L34.9402 31.6201C34.6302 31.9101 34.3002 32.2001 33.9502 32.4701V32.4601Z" fill="black"></path><path d="M34.8 46.6698L35.61 46.3098C35.7 46.2698 35.74 46.1598 35.69 46.0598L30.46 34.2598C30.07 34.3898 29.67 34.5098 29.25 34.5998L34.55 46.5598C34.59 46.6598 34.7 46.7098 34.79 46.6698H34.8Z" fill="black"></path><path d="M26.6899 34.9598L32.4299 51.4298C32.4699 51.5298 32.5699 51.5798 32.6599 51.5398L33.4899 51.2198C33.5899 51.1998 33.6299 51.0898 33.5899 50.9798L27.9299 34.8398C27.5199 34.8898 27.1099 34.9298 26.6999 34.9498L26.6899 34.9598Z" fill="black"></path><path d="M39.75 48.42C39.75 48.42 39.85 48.44 39.88 48.42L40.67 48.02C40.75 47.97 40.78 47.86 40.73 47.77L32.8 33.23C32.46 33.43 32.1 33.62 31.73 33.79L39.64 48.34C39.64 48.34 39.7 48.42 39.74 48.44L39.75 48.42Z" fill="black"></path><path d="M46.5899 34.7899C46.6899 34.8299 46.7999 34.7899 46.8399 34.6999L47.1699 33.8699C47.2099 33.7799 47.1599 33.6799 47.0599 33.6299L36.6199 29.3999C36.4199 29.7699 36.1899 30.1299 35.9399 30.4599L46.5899 34.7799V34.7899Z" fill="black"></path><path d="M34.9502 19.9601L49.0002 12.9501C49.0002 12.9501 49.0802 12.9001 49.1002 12.8501C49.1302 12.8001 49.1202 12.7401 49.1002 12.7101L48.7202 11.9001C48.6902 11.8401 48.6302 11.8101 48.5602 11.8101C48.5302 11.8101 48.5002 11.8101 48.4602 11.8301L33.9502 19.1001C34.3102 19.3601 34.6402 19.6501 34.9502 19.9501V19.9601Z" fill="black"></path><path d="M33.6299 0.58002C33.6299 0.58002 33.6499 0.48002 33.6299 0.44002C33.6099 0.39002 33.5699 0.35002 33.5399 0.34002L32.7099 0.0200195C32.7099 0.0200195 32.6799 0.0200195 32.6599 0.0200195C32.5799 0.0200195 32.5099 0.0700195 32.4799 0.15002L26.6899 16.6C27.1099 16.62 27.5199 16.66 27.9299 16.71L33.6299 0.58002Z" fill="black"></path><path d="M24.1001 16.71C24.5101 16.65 24.9201 16.62 25.3401 16.6L19.5901 0.13C19.5601 0.05 19.4901 0 19.4201 0C19.4001 0 19.3901 0 19.3701 0L18.5401 0.31C18.5401 0.31 18.4601 0.36 18.4501 0.41C18.4301 0.45 18.4301 0.5 18.4501 0.55L24.1101 16.7L24.1001 16.71Z" fill="black"></path><path d="M30.4598 17.2902L35.7198 5.53016C35.7598 5.43016 35.7198 5.32016 35.6398 5.28016L34.8298 4.92016C34.8298 4.92016 34.7898 4.91016 34.7598 4.91016C34.6898 4.91016 34.6198 4.95016 34.5898 5.03016L29.2598 16.9502C29.6698 17.0402 30.0798 17.1602 30.4698 17.2902H30.4598Z" fill="black"></path><path d="M32.8002 18.3499L40.7602 3.85992C40.8102 3.75992 40.7902 3.64992 40.6902 3.60992L39.9002 3.19992C39.9002 3.19992 39.8502 3.16992 39.8202 3.16992C39.7602 3.16992 39.6902 3.20992 39.6502 3.27992L31.7202 17.7799C32.0902 17.9499 32.4502 18.1299 32.7902 18.3299L32.8002 18.3499Z" fill="black"></path><path d="M26.6201 30.4098C26.6201 30.4798 26.6701 30.5298 26.7401 30.5298C27.0601 30.5298 27.9401 30.5298 28.2601 30.5298C28.3301 30.5298 28.3801 30.4698 28.3801 30.4098C28.3601 29.9898 28.3101 28.5498 28.3001 27.2498C28.3001 27.1798 28.3501 27.1298 28.4201 27.1298H29.3501C30.9801 27.1298 32.3001 25.8098 32.3001 24.1798V23.9598C32.3001 22.3398 30.9801 21.0098 29.3501 21.0098H26.7401C26.6701 21.0098 26.6201 21.0598 26.6201 21.1298C26.6401 21.6398 26.7001 23.6798 26.7001 25.5698C26.7001 27.4598 26.6401 29.8598 26.6201 30.4098ZM28.3001 22.8198C28.3001 22.7498 28.3501 22.6998 28.4201 22.6998H29.4601C30.0901 22.6998 30.6001 23.2098 30.6001 23.8398V24.2898C30.6001 24.9198 30.0901 25.4298 29.4601 25.4298H28.4201C28.3501 25.4298 28.3001 25.3798 28.3001 25.3098V22.8198Z" fill="black"></path><path d="M21.3702 27.1898H19.8102C19.8102 27.1898 19.7502 27.2098 19.7402 27.2398C19.7202 27.3098 19.7002 27.4498 19.7002 27.7598C19.7002 29.5298 20.8302 30.4898 22.2702 30.5598C23.0102 30.5998 23.7302 30.3298 24.2702 29.8098C24.8102 29.2898 25.1102 28.5898 25.1102 27.8398V21.0798C25.1102 21.0798 25.0802 21.0098 25.0402 21.0098H23.3602C23.3602 21.0098 23.2802 21.0498 23.2802 21.0998C23.3202 21.3698 23.4302 22.2398 23.4302 23.6798V27.8098C23.4302 28.3598 23.0202 28.8298 22.5002 28.8798C22.2002 28.9098 21.9202 28.8198 21.7002 28.6198C21.4802 28.4298 21.3602 28.1798 21.3602 27.8598C21.3602 27.6398 21.4002 27.4198 21.4202 27.2998C21.4202 27.2598 21.3902 27.2098 21.3502 27.2098L21.3702 27.1898Z" fill="black"></path></g><defs><clipPath id="clip0_693_16685"><rect width="52" height="51.56" fill="white"></rect></clipPath></defs></svg>